<svg xmlns="http://www.w3.org/2000/svg" width="24" height="24" viewBox="0 0 24 24" fill="none">
  <path fill-rule="evenodd" clip-rule="evenodd" d="M12.0013 8.69913C11.1262 8.69913 10.2869 9.04677 9.6681 9.66557C9.0493 10.2844 8.70166 11.1237 8.70166 11.9988C8.70166 12.8739 9.0493 13.7132 9.6681 14.332C10.2869 14.9508 11.1262 15.2984 12.0013 15.2984C12.8764 15.2984 13.7157 14.9508 14.3345 14.332C14.9533 13.7132 15.3009 12.8739 15.3009 11.9988C15.3009 11.1237 14.9533 10.2844 14.3345 9.66557C13.7157 9.04677 12.8764 8.69913 12.0013 8.69913ZM10.7994 10.7968C11.1181 10.478 11.5505 10.299 12.0013 10.299C12.4521 10.299 12.8845 10.478 13.2033 10.7968C13.522 11.1156 13.7011 11.548 13.7011 11.9988C13.7011 12.4496 13.522 12.8819 13.2033 13.2007C12.8845 13.5195 12.4521 13.6986 12.0013 13.6986C11.5505 13.6986 11.1181 13.5195 10.7994 13.2007C10.4806 12.8819 10.3015 12.4496 10.3015 11.9988C10.3015 11.548 10.4806 11.1156 10.7994 10.7968Z" fill="#B6BDC8"/>
  <path fill-rule="evenodd" clip-rule="evenodd" d="M12.0013 5.59521C6.60201 5.5952 2.91012 9.64409 1.38574 11.4893V12.5082C2.91012 14.3535 6.60198 18.4023 12.0013 18.4023C17.4007 18.4023 21.0926 14.3535 22.617 12.5082V11.4893C21.0926 9.64409 17.4007 5.59523 12.0013 5.59521ZM12.0013 16.8024C7.79961 16.8024 4.70925 13.8989 3.0513 11.9988C4.70926 10.0986 7.79964 7.19503 12.0013 7.19504C16.2031 7.19505 19.2934 10.0986 20.9514 11.9988C19.2934 13.8989 16.2031 16.8024 12.0013 16.8024Z" fill="#B6BDC8"/>
</svg>
