<svg width="32" height="32" viewBox="0 0 32 32" fill="none" xmlns="http://www.w3.org/2000/svg">
<path fill-rule="evenodd" clip-rule="evenodd" d="M9.1574 7.26836C9.02651 6.98353 8.73765 6.79662 8.41719 6.79662H6.88666L10.3084 14.1708H16.3429C16.5641 14.1708 16.7717 14.2687 16.9116 14.4423L25.6399 25.1989H27.6492L17.5976 12.8091C17.4442 12.6222 17.214 12.5109 16.9658 12.5109H11.545L11.3284 12.0392L9.1574 7.26836ZM24.6026 25.1989L16.3023 14.9719H10.2542C9.96987 14.9719 9.70809 14.8072 9.59073 14.5535L5.99323 6.79662H3.96688L8.63384 16.1869C8.76924 16.4584 9.05359 16.632 9.36051 16.632H15.6433L15.887 16.9301L22.3549 24.9008C22.5083 25.0877 22.7385 25.1989 22.9868 25.1989H24.6026ZM16.9612 11.7143C17.4532 11.7143 17.9181 11.9368 18.225 12.3151L29.3282 26H22.9822C22.4903 26 22.0254 25.7775 21.7185 25.3992L15.2506 17.4286H9.356C8.73765 17.4286 8.17346 17.0814 7.90265 16.534L2.66699 6H8.41719C9.05811 6 9.63583 6.36938 9.8931 6.94348L12.0641 11.7143H16.9612Z" fill="#040D1F"/>
<path d="M7.34771 19.4356L2.99219 25.9999H9.02673C9.30206 25.9999 9.55933 25.8619 9.70827 25.6349L14.2218 18.7146H8.70628C8.16014 18.7146 7.65012 18.9861 7.35223 19.4356H7.34771Z" fill="#0058F0"/>
<path d="M22.4324 6.68091L19.5212 10.9622C19.3226 11.2514 19.3407 11.6386 19.5663 11.9101L22.798 15.8309L29.3336 6H23.7594C23.2313 6 22.7393 6.25367 22.4324 6.68091Z" fill="#0058F0"/>
</svg>
