<svg xmlns="http://www.w3.org/2000/svg" width="60" height="60" viewBox="0 0 60 60" fill="none">
  <path d="M0 12C0 5.37258 5.37258 0 12 0H48C54.6274 0 60 5.37258 60 12V48C60 54.6274 54.6274 60 48 60H12C5.37258 60 0 54.6274 0 48V12Z" fill="#FFF5E6"/>
  <path d="M30.0008 38.6668C30.774 38.6668 31.4008 38.04 31.4008 37.2668C31.4008 36.4936 30.774 35.8668 30.0008 35.8668C29.2276 35.8668 28.6008 36.4936 28.6008 37.2668C28.6008 38.04 29.2276 38.6668 30.0008 38.6668Z" fill="#DF7202"/>
  <path fill-rule="evenodd" clip-rule="evenodd" d="M22.2676 24.6667V26.2667H20.2258L18.2676 28.2249V41.1085L20.2258 43.0667H39.7761L41.7342 41.1085V28.2249L39.7761 26.2667H37.7342V24.6667C37.7342 22.6157 36.9195 20.6487 35.4692 19.1984C34.0189 17.7481 32.0519 16.9333 30.0009 16.9333C27.9499 16.9333 25.9829 17.7481 24.5326 19.1984C23.0823 20.6487 22.2676 22.6157 22.2676 24.6667ZM30.0009 19.0667C28.5157 19.0667 27.0913 19.6567 26.0411 20.7069C24.9909 21.7571 24.4009 23.1815 24.4009 24.6667V26.2667H35.6009V24.6667C35.6009 23.1815 35.0109 21.7571 33.9607 20.7069C32.9105 19.6567 31.4861 19.0667 30.0009 19.0667ZM21.1094 28.4H38.8924L39.6009 29.1085V40.2249L38.8924 40.9333H21.1094L20.4009 40.2249V29.1085L21.1094 28.4Z" fill="#DF7202"/>
</svg>
