<svg width="130" height="121" viewBox="0 0 130 121" fill="none" xmlns="http://www.w3.org/2000/svg">
<path d="M77.1282 33.8044C77.1143 33.7945 77.098 33.7883 77.0809 33.7864L33.3025 29.0329C33.2066 29.0225 33.153 29.1404 33.2239 29.2058L75.2608 67.9736C75.2793 67.9907 75.3035 68.0001 75.3286 68.0001H124.689C124.786 68.0001 124.826 67.8753 124.747 67.8187L77.1282 33.8044Z" fill="white"/>
<path fill-rule="evenodd" clip-rule="evenodd" d="M32.8845 29.5737C32.4591 29.1814 32.7808 28.4736 33.356 28.5361L77.1344 33.2896C77.2368 33.3007 77.3346 33.338 77.4184 33.3979L125.037 67.4122C125.512 67.7515 125.272 68.5004 124.688 68.5004H75.3282C75.1774 68.5004 75.0322 68.4437 74.9214 68.3415L32.8845 29.5737ZM34.4545 29.6613L75.4845 67.5004H123.44L76.9224 34.2725L34.4545 29.6613Z" fill="#231F20"/>
<path d="M106.645 115.229L69.4504 98.2201C67.2325 97.2058 64.7905 96.8139 62.3722 97.0821L0.757997 102.134C-0.0435623 102.223 -0.186213 103.337 0.5644 103.633L45 121L106.461 116.388C107.069 116.326 107.205 115.487 106.648 115.233L106.645 115.229Z" fill="#231F20"/>
<path d="M71.2261 46.1223C72.1393 47.2412 74.1727 48.706 76.707 49.9767C79.0568 51.155 81.2828 51.8883 82.7446 52.0386C84.4595 53.6371 85.3322 55.5109 84.8831 56.9718L68.0405 111.948C67.2954 114.384 63.2219 114.702 59.3203 112.628H59.3285L37.8433 101.201C34.0482 99.1807 32.0339 95.7546 33.4586 93.7462L66.4438 47.3576C67.2794 46.1803 69.1085 45.7693 71.2261 46.1223Z" fill="#0058F0"/>
<path d="M72.4162 42.2246C72.8274 43.5317 75.1087 45.4766 78.1867 47.02C81.3445 48.6033 84.3394 49.2619 85.5786 48.7382L84.089 51.7872C83.761 52.4556 80.5742 51.4962 76.9664 49.6367C73.3631 47.7817 70.6993 45.7357 71.0273 45.0674L72.4162 42.2246Z" fill="#0058F0"/>
<path d="M72 41.251C72 41.251 73.5451 9.06287 95.0081 6C100.194 6 86.618 12.6387 85.4625 18.4163C87.731 12.0576 98.3642 5.737 101.193 9.71175C101.317 9.88567 101.274 10.1317 101.1 10.259C96.863 12.7587 95.246 15.7651 95.246 15.7651L87.697 24.9744C87.697 24.9744 99.0184 11.0183 102.51 15.0651C103.347 16.7407 94.0965 24.4685 93.5637 27.2057C94.2604 24.8193 99.8128 18.4121 102.557 20.7876C105.301 23.1589 94.4006 32.0925 94.2604 35.7194C94.1202 39.3463 90.4881 47.0243 85.454 48" fill="white"/>
<path fill-rule="evenodd" clip-rule="evenodd" d="M95.0424 6.50011C84.6151 8.00583 78.9709 16.5782 75.9247 24.9451C74.4044 29.1206 73.5471 33.2064 73.0702 36.2511C72.8318 37.7725 72.6888 39.0317 72.6055 39.9092C72.5638 40.3479 72.537 40.691 72.5208 40.9237C72.5126 41.04 72.5071 41.1287 72.5036 41.1878L72.4999 41.2542L72.499 41.2704L72.4989 41.2741L71.9994 41.251C71.5 41.227 71.5 41.2267 71.5 41.2263L71.5001 41.2249L71.5003 41.2198L71.5013 41.201L71.5053 41.1293C71.509 41.0665 71.5148 40.974 71.5232 40.8538C71.54 40.6135 71.5674 40.2621 71.6099 39.8146C71.6949 38.9199 71.8403 37.6404 72.0822 36.0963C72.5657 33.0101 73.4361 28.8574 74.985 24.603C78.0736 16.1197 83.924 7.07661 94.9369 5.50501L94.972 5.5H95.0075C95.352 5.5 95.6523 5.52688 95.8981 5.59328C96.1359 5.65754 96.397 5.77924 96.5554 6.02789C96.7259 6.2956 96.7012 6.58583 96.625 6.81107C96.5512 7.0289 96.4137 7.24074 96.2591 7.43703C95.9542 7.82396 95.4859 8.26901 94.9385 8.748C95.9343 8.34901 96.9109 8.08689 97.814 8.00294C99.3406 7.86101 100.75 8.22697 101.6 9.42179L101.601 9.42273C101.886 9.82572 101.783 10.3786 101.394 10.6627L101.375 10.6771L101.353 10.6896C99.2869 11.9088 97.8634 13.2491 96.9593 14.2793C96.5072 14.7943 96.1852 15.2317 95.978 15.5371C95.8744 15.6897 95.7995 15.8094 95.7514 15.8891C95.7273 15.929 95.71 15.9589 95.6992 15.978L95.6877 15.9984L95.6857 16.0019L95.6628 16.0446L95.1439 16.6776C96.2775 15.7621 97.4289 14.9682 98.507 14.4548C99.3173 14.0689 100.125 13.8224 100.875 13.8291C101.646 13.8359 102.348 14.112 102.888 14.7385L102.929 14.7858L102.957 14.8417C103.174 15.2753 103.021 15.7762 102.842 16.165C102.645 16.5909 102.325 17.0747 101.939 17.5855C101.393 18.308 100.679 19.1305 99.9091 19.9864C99.9175 19.9836 99.9259 19.9808 99.9343 19.978C100.954 19.6402 102.02 19.6618 102.883 20.4093C103.371 20.8305 103.537 21.3979 103.492 21.9985C103.449 22.5759 103.213 23.2043 102.881 23.8417C102.217 25.1198 101.076 26.6087 99.8794 28.096C99.5714 28.4789 99.2594 28.8622 98.9491 29.2433C98.0392 30.3607 97.1439 31.4603 96.4067 32.4822C95.9141 33.1652 95.5037 33.798 95.2139 34.3622C94.9199 34.9347 94.7728 35.3936 94.7594 35.7387C94.685 37.6651 93.7009 40.5756 92.1161 43.1184C90.537 45.6523 88.2722 47.963 85.5485 48.4909L85.3582 47.5091C87.6686 47.0614 89.737 45.0452 91.2675 42.5895C92.7924 40.1426 93.6945 37.4007 93.7602 35.7001C93.7819 35.1385 94.0061 34.5249 94.3244 33.9053C94.6468 33.2775 95.0896 32.5988 95.5957 31.8972C96.3515 30.8494 97.2744 29.716 98.1896 28.5921C98.4962 28.2156 98.8019 27.8401 99.1003 27.4693C100.304 25.9734 101.382 24.5576 101.994 23.3804C102.301 22.7901 102.467 22.3032 102.495 21.924C102.522 21.568 102.428 21.3375 102.23 21.1659C101.721 20.7259 101.064 20.6573 100.249 20.9273C99.4224 21.2011 98.5082 21.8051 97.6226 22.586C97.4499 22.7383 97.2794 22.8963 97.1121 23.0584C96.6024 23.6277 96.1192 24.1823 95.6905 24.7062C95.2757 25.2132 94.9189 25.6833 94.6421 26.1033C94.342 26.5965 94.1365 27.0259 94.0431 27.3459L93.0723 27.1102C93.1572 26.6742 93.4012 26.1899 93.7126 25.6991C93.7398 25.6562 93.7677 25.613 93.7963 25.5695C93.9952 25.2435 94.2239 24.9053 94.4736 24.5658C95.0136 23.8317 95.6723 23.0644 96.3904 22.3653C96.8717 21.8282 97.3726 21.2818 97.8677 20.7418C97.9726 20.6274 98.0772 20.5133 98.1814 20.3996C99.3224 19.1538 100.4 17.9631 101.141 16.9826C101.513 16.4906 101.782 16.0743 101.933 15.7462C102.047 15.4991 102.063 15.3702 102.063 15.3171C101.743 14.9842 101.348 14.8333 100.866 14.829C100.329 14.8243 99.6791 15.0042 98.937 15.3576C97.4533 16.0642 95.7549 17.3883 94.1307 18.8714C92.5141 20.3477 91.0021 21.9524 89.8923 23.1907C89.3379 23.8093 88.8851 24.335 88.5713 24.7057C88.4144 24.8911 88.2923 25.0376 88.2096 25.1375C88.1939 25.1565 88.1796 25.1738 88.1667 25.1894L88.0864 25.2873L88.085 25.289L88.0831 25.2914L87.3081 24.6595L87.6963 24.9744C87.3081 24.6595 87.308 24.6596 87.3081 24.6595L87.3088 24.6586L87.3097 24.6575L87.3105 24.6565L87.317 24.6485L87.3422 24.6177C87.3557 24.6012 87.3731 24.58 87.3943 24.5543L94.8306 15.4824C94.8455 15.4563 94.8668 15.4195 94.8949 15.3729C94.9518 15.2785 95.0364 15.1437 95.1505 14.9755C95.3789 14.6391 95.7259 14.1686 96.2077 13.6196C97.1518 12.5439 98.614 11.1661 100.714 9.90647C100.14 9.18247 99.1856 8.87973 97.9066 8.99864C96.5718 9.12273 94.9763 9.70485 93.3646 10.6234C90.1298 12.467 87.0128 15.557 85.9328 18.5843L84.9716 18.3183C85.2895 16.7285 86.4399 15.1437 87.8065 13.6957C89.1852 12.2348 90.8519 10.8448 92.2948 9.65571C92.3834 9.58263 92.4712 9.51035 92.558 9.43889C93.1816 8.92542 93.7543 8.45386 94.2423 8.02836C94.8032 7.53921 95.2242 7.13469 95.4736 6.81812C95.5602 6.70828 95.6144 6.62329 95.6466 6.56125C95.6435 6.56039 95.6404 6.55953 95.6372 6.55865C95.5174 6.52629 95.3268 6.50195 95.0424 6.50011Z" fill="#231F20"/>
<path d="M79 26.4978C79 26.4978 90.8034 13.3261 95.5281 16.491C98.6328 18.7437 85.4018 29.7471 85.4018 29.7471C85.4018 29.7471 89.275 38.9979 82.6508 46" fill="white"/>
<path fill-rule="evenodd" clip-rule="evenodd" d="M79.3715 26.8313L78.9991 26.4976C78.6267 26.1639 78.6268 26.1638 78.627 26.1637L78.6361 26.1535L78.6624 26.1243C78.6855 26.0989 78.7196 26.0614 78.764 26.0129C78.8529 25.9158 78.9833 25.7744 79.1508 25.5958C79.4856 25.2387 79.9687 24.7329 80.5629 24.1362C81.7503 22.9437 83.3864 21.3835 85.1748 19.9204C86.9578 18.4616 88.9165 17.0792 90.7478 16.2625C92.5497 15.4589 94.3956 15.131 95.8054 16.0753L95.8132 16.0806L95.8208 16.0861C96.394 16.502 96.5605 17.1232 96.4796 17.7693C96.4021 18.3878 96.0987 19.0732 95.6842 19.7685C94.8498 21.1681 93.4538 22.7885 91.9885 24.3104C90.5169 25.8389 88.9501 27.2937 87.7532 28.365C87.1543 28.9011 86.6469 29.342 86.289 29.6491C86.1748 29.7471 86.0758 29.8315 85.9939 29.9011C86.0043 29.9301 86.0152 29.961 86.0265 29.9935C86.1232 30.2706 86.2524 30.6715 86.3858 31.1733C86.6524 32.176 86.9369 33.5876 87.009 35.2256C87.1532 38.5032 86.4456 42.7151 83.0131 46.3434L82.2867 45.6562C85.4784 42.2824 86.1463 38.3679 86.01 35.2695C85.9418 33.7196 85.6721 32.3808 85.4194 31.4302C85.2932 30.9554 85.1716 30.5788 85.0823 30.3227C85.0376 30.1947 85.0011 30.0969 84.9762 30.0322C84.9637 29.9998 84.9542 29.9757 84.9479 29.9603L84.9412 29.9435L84.9397 29.9401L84.7969 29.5989L85.0812 29.3625L85.0901 29.3551L85.1177 29.332C85.1422 29.3115 85.1787 29.2808 85.2263 29.2407C85.3214 29.1604 85.461 29.042 85.6377 28.8903C85.9913 28.5869 86.4933 28.1506 87.0863 27.6199C88.2732 26.5576 89.8201 25.1208 91.2681 23.6168C92.7224 22.1064 94.052 20.5535 94.8253 19.2564C95.2146 18.6033 95.4355 18.0594 95.4873 17.645C95.5352 17.2626 95.4388 17.0477 95.2406 16.9006C94.2882 16.2689 92.8901 16.4021 91.1551 17.1758C89.4443 17.9387 87.5663 19.2558 85.808 20.6944C84.0549 22.1286 82.4448 23.6635 81.2715 24.8418C80.6853 25.4305 80.2093 25.929 79.8802 26.2799C79.7157 26.4553 79.5879 26.5938 79.5016 26.6881C79.4584 26.7352 79.4256 26.7714 79.4037 26.7955L79.3792 26.8227L79.3715 26.8313Z" fill="#231F20"/>
<path d="M75.0369 68C74.9993 68 74.9649 68.0211 74.9478 68.0546L49.5794 117.843C49.5442 117.912 49.5977 117.994 49.675 117.989L101.549 114.598C101.584 114.596 101.616 114.575 101.631 114.544L124.927 68.1449C124.96 68.0784 124.912 68 124.838 68H75.0369Z" fill="white"/>
<path fill-rule="evenodd" clip-rule="evenodd" d="M75.2828 68.5L50.345 117.444L101.288 114.114L124.19 68.5H75.2828ZM74.5031 67.8276C74.6055 67.6266 74.8121 67.5 75.0377 67.5H124.838C125.285 67.5 125.575 67.9702 125.375 68.3692L102.079 114.768C101.984 114.958 101.794 115.084 101.582 115.097L49.7084 118.487C49.2441 118.518 48.9235 118.031 49.1347 117.616L74.5031 67.8276Z" fill="#231F20"/>
<path d="M75.1098 68C75.0508 68 75.0046 68.0508 75.0102 68.1096L76.6286 84.9037C76.6337 84.9574 76.6806 84.9973 76.7344 84.9939L128.873 81.693C128.938 81.6889 128.981 81.6256 128.962 81.5638L124.809 68.0706C124.796 68.0286 124.757 68 124.713 68H75.1098Z" fill="white"/>
<path fill-rule="evenodd" clip-rule="evenodd" d="M75.5502 68.5L77.0892 84.4704L128.335 81.2261L124.418 68.5H75.5502ZM74.5126 68.1576C74.4786 67.8051 74.7557 67.5 75.1098 67.5H124.713C124.977 67.5 125.209 67.6718 125.287 67.9235L129.44 81.4167C129.554 81.7875 129.292 82.1675 128.905 82.192L76.7661 85.4929C76.443 85.5133 76.162 85.2738 76.1309 84.9516L74.5126 68.1576Z" fill="#231F20"/>
<path d="M33.193 29.0948C33.1426 29.0484 33.0614 29.0653 33.0337 29.1281L13.0241 74.5777C13.0088 74.6125 13.0145 74.6531 13.039 74.6822L49.2411 117.884C49.2871 117.939 49.3743 117.929 49.4068 117.865L74.9647 67.6756C74.985 67.6357 74.9763 67.5871 74.9433 67.5567L33.193 29.0948Z" fill="white"/>
<path fill-rule="evenodd" clip-rule="evenodd" d="M33.2659 29.8419L13.5819 74.5518L49.2358 117.099L74.3815 67.7191L33.2659 29.8419ZM32.5761 28.9268C32.742 28.5501 33.2291 28.4484 33.5318 28.7272L75.2821 67.1891C75.4799 67.3713 75.5323 67.6629 75.4102 67.9026L49.8524 118.092C49.6572 118.476 49.1341 118.535 48.8578 118.205L12.6558 75.0035C12.5091 74.8285 12.4745 74.5854 12.5665 74.3764L32.5761 28.9268Z" fill="#231F20"/>
<path d="M46.6154 42L24 88.4L34.1538 100L60 54.0462L46.6154 42Z" fill="#231F20"/>
<path d="M32.7999 29.0433C32.7711 29.0169 32.7296 29.0098 32.6936 29.025L17.1256 35.592C17.0635 35.6182 17.0446 35.6971 17.0881 35.7486L53.5811 78.9383C53.6115 78.9743 53.663 78.9842 53.7046 78.962L74.8755 67.6618C74.9364 67.6293 74.9469 67.5464 74.8959 67.4998L32.7999 29.0433Z" fill="white"/>
<path fill-rule="evenodd" clip-rule="evenodd" d="M32.652 29.5852L17.8211 35.8413L53.7545 78.3687L74.141 67.4872L32.652 29.5852ZM32.4994 28.5643C32.7153 28.4732 32.9643 28.5161 33.1373 28.6741L75.2333 67.1306C75.5391 67.41 75.4766 67.9079 75.1111 68.1029L53.9402 79.4031C53.6906 79.5363 53.3819 79.4771 53.1994 79.261L16.7063 36.0714C16.4452 35.7623 16.5586 35.2886 16.9314 35.1313L32.4994 28.5643Z" fill="#231F20"/>
<path fill-rule="evenodd" clip-rule="evenodd" d="M125.165 46.4234C125.222 46.7024 125.056 46.9695 124.794 47.0199L113.865 49.1186C113.602 49.169 113.343 48.9836 113.286 48.7046C113.229 48.4255 113.395 48.1585 113.658 48.1081L124.587 46.0093C124.849 45.959 125.108 46.1443 125.165 46.4234Z" fill="#231F20"/>
<path fill-rule="evenodd" clip-rule="evenodd" d="M49.811 9.55559C49.549 9.66792 49.4216 9.95809 49.5262 10.2037L54.9155 22.8458C55.0202 23.0914 55.3174 23.1995 55.5794 23.0871C55.8413 22.9748 55.9688 22.6846 55.8641 22.439L50.4748 9.79688C50.3701 9.55129 50.0729 9.44325 49.811 9.55559Z" fill="#231F20"/>
<path fill-rule="evenodd" clip-rule="evenodd" d="M43.8486 21.7803C43.7097 22.0216 43.7961 22.3155 44.0416 22.4369L49.3847 25.0791C49.6302 25.2005 49.9418 25.1033 50.0807 24.8621C50.2197 24.6208 50.1333 24.3268 49.8878 24.2054L44.5447 21.5633C44.2992 21.4419 43.9876 21.5391 43.8486 21.7803Z" fill="#231F20"/>
<path fill-rule="evenodd" clip-rule="evenodd" d="M120.534 28.5643C120.705 28.7897 120.675 29.1119 120.467 29.2839L107.201 40.2819C106.993 40.4539 106.687 40.4105 106.516 40.1851C106.346 39.9596 106.376 39.6375 106.583 39.4655L119.85 28.4675C120.058 28.2955 120.364 28.3389 120.534 28.5643Z" fill="#231F20"/>
<path fill-rule="evenodd" clip-rule="evenodd" d="M63.6102 0.513046C63.3284 0.536837 63.1089 0.774206 63.12 1.04323L63.983 21.8993C63.9941 22.1683 64.2317 22.3671 64.5135 22.3433C64.7954 22.3195 65.0149 22.0822 65.0037 21.8132L64.1407 0.95707C64.1296 0.688051 63.8921 0.489255 63.6102 0.513046Z" fill="#231F20"/>
</svg>
