<svg width="167" height="40" viewBox="0 0 167 40" fill="none" xmlns="http://www.w3.org/2000/svg">
<path d="M117.367 12.3832H120.073V9.95478L123.754 7.41721V12.3832H126.974V15.6848H123.754V21.6603C123.754 22.3515 123.79 22.9155 123.862 23.352C123.934 23.7704 124.078 24.0978 124.295 24.3343C124.529 24.5526 124.854 24.6981 125.269 24.7709C125.702 24.8436 126.27 24.88 126.974 24.88V28.3453H126.46C125.233 28.3453 124.205 28.2361 123.375 28.0179C122.563 27.7996 121.913 27.4358 121.426 26.9264C120.939 26.3989 120.588 25.7168 120.371 24.88C120.173 24.0251 120.073 22.9609 120.073 21.6876V15.6848H117.367V12.3832Z" fill="#040D1F"/>
<path d="M101.869 12.3832H105.495V14.3478C106.018 13.6565 106.677 13.1017 107.47 12.6833C108.282 12.265 109.202 12.0558 110.23 12.0558C112.197 12.0558 113.73 12.6561 114.831 13.8566C115.949 15.0572 116.508 16.7307 116.508 18.8772V28.3453H112.801V19.2592C112.801 18.0222 112.503 17.049 111.908 16.3396C111.313 15.612 110.42 15.2482 109.229 15.2482C108.183 15.2482 107.299 15.6211 106.577 16.3669C105.874 17.1127 105.522 18.1859 105.522 19.5866V28.3453H101.869V12.3832Z" fill="#040D1F"/>
<path d="M90.8615 28.6727C89.9053 28.6727 88.9583 28.4908 88.0202 28.127C87.1001 27.745 86.2703 27.1993 85.5307 26.4899C84.791 25.7804 84.1957 24.9164 83.7447 23.8977C83.2937 22.8609 83.0682 21.6876 83.0682 20.3779C83.0682 19.05 83.2847 17.8767 83.7177 16.858C84.1687 15.8212 84.755 14.948 85.4766 14.2386C86.2162 13.5292 87.055 12.9926 87.9931 12.6288C88.9492 12.2468 89.9234 12.0558 90.9156 12.0558C91.9619 12.0558 92.927 12.2559 93.811 12.6561C94.6949 13.0562 95.4256 13.602 96.0028 14.2932V12.3832H99.6559V28.3453H96.0028V26.2716C95.4256 27.0174 94.6859 27.6086 93.7839 28.0452C92.8819 28.4635 91.9078 28.6727 90.8615 28.6727ZM91.4568 25.2893C92.1423 25.2893 92.7737 25.162 93.351 24.9073C93.9282 24.6526 94.4243 24.2979 94.8393 23.8432C95.2542 23.3884 95.5789 22.8609 95.8134 22.2606C96.066 21.6603 96.1923 21.0146 96.1923 20.3233C96.1923 19.6503 96.066 19.0136 95.8134 18.4133C95.5789 17.813 95.2542 17.2946 94.8393 16.858C94.4243 16.4033 93.9282 16.0486 93.351 15.7939C92.7737 15.5392 92.1423 15.4119 91.4568 15.4119C90.7893 15.4119 90.1579 15.5392 89.5626 15.7939C88.9853 16.0486 88.4802 16.3942 88.0472 16.8308C87.6143 17.2673 87.2715 17.7858 87.019 18.386C86.7844 18.9863 86.6672 19.6321 86.6672 20.3233C86.6672 21.0146 86.7844 21.6694 87.019 22.2879C87.2715 22.8882 87.6143 23.4157 88.0472 23.8704C88.4802 24.307 88.9853 24.6526 89.5626 24.9073C90.1579 25.162 90.7893 25.2893 91.4568 25.2893Z" fill="#040D1F"/>
<path d="M66.8285 8.15392H70.4816V14.2932C71.0228 13.602 71.6903 13.0562 72.484 12.6561C73.2958 12.2559 74.2068 12.0558 75.2171 12.0558C77.1834 12.0558 78.7168 12.6561 79.8172 13.8566C80.9357 15.0572 81.4949 16.7307 81.4949 18.8772V28.3453H77.7607V19.2865C77.7607 18.0313 77.463 17.049 76.8677 16.3396C76.2724 15.612 75.3794 15.2482 74.1888 15.2482C73.6837 15.2482 73.2056 15.3482 72.7546 15.5483C72.3036 15.7302 71.9067 16.0031 71.564 16.3669C71.2393 16.7307 70.9777 17.1855 70.7792 17.7312C70.5988 18.2769 70.5087 18.8954 70.5087 19.5866V28.3453H66.8285V8.15392Z" fill="#040D1F"/>
<path d="M57.8396 28.6727C56.685 28.6727 55.6026 28.4544 54.5924 28.0179C53.6002 27.5813 52.7343 26.9901 51.9946 26.2443C51.255 25.4985 50.6687 24.6254 50.2358 23.6249C49.8208 22.6062 49.6134 21.5239 49.6134 20.3779C49.6134 19.2137 49.8208 18.1314 50.2358 17.1309C50.6687 16.1122 51.255 15.23 51.9946 14.4842C52.7343 13.7202 53.6002 13.129 54.5924 12.7106C55.6026 12.2741 56.685 12.0558 57.8396 12.0558C58.7235 12.0558 59.5534 12.1831 60.3291 12.4378C61.1228 12.6742 61.8444 13.0108 62.4939 13.4473C63.1433 13.8839 63.7116 14.4023 64.1986 15.0026C64.6857 15.6029 65.0826 16.2669 65.3893 16.9945L62.115 18.386C61.7542 17.5129 61.195 16.8217 60.4373 16.3123C59.6977 15.7848 58.8408 15.521 57.8666 15.521C57.1992 15.521 56.5768 15.6484 55.9995 15.903C55.4403 16.1577 54.9442 16.5033 54.5112 16.9399C54.0963 17.3765 53.7716 17.8949 53.5371 18.4952C53.3025 19.0773 53.1853 19.7048 53.1853 20.3779C53.1853 21.0327 53.3025 21.6603 53.5371 22.2606C53.7716 22.8427 54.0963 23.352 54.5112 23.7886C54.9442 24.2252 55.4493 24.5708 56.0266 24.8254C56.6038 25.0801 57.2262 25.2074 57.8937 25.2074C58.922 25.2074 59.7969 24.9346 60.5185 24.3889C61.2581 23.825 61.8084 23.1065 62.1692 22.2333L65.4434 23.6522C65.1367 24.3798 64.7398 25.0528 64.2528 25.6713C63.7657 26.2898 63.1974 26.8264 62.548 27.2812C61.9166 27.7177 61.204 28.0633 60.4103 28.318C59.6165 28.5545 58.7596 28.6727 57.8396 28.6727Z" fill="#040D1F"/>
<path d="M39.0023 12.3832H42.6283V14.757C43.368 13.1745 44.721 12.3832 46.6873 12.3832C47.2646 12.3832 47.7787 12.4469 48.2297 12.5742C48.6988 12.7015 49.1137 12.8652 49.4745 13.0653L48.0944 16.5579C47.8238 16.376 47.5172 16.2305 47.1744 16.1213C46.8497 15.994 46.4257 15.9303 45.9026 15.9303C44.8382 15.9303 44.0264 16.2396 43.4672 16.858C42.926 17.4583 42.6554 18.4497 42.6554 19.8322V28.3453H39.0023V12.3832Z" fill="#040D1F"/>
<path d="M29.3559 28.6727C28.1112 28.6727 26.9747 28.4635 25.9464 28.0452C24.9181 27.6086 24.0341 27.0174 23.2945 26.2716C22.5729 25.5258 22.0047 24.6526 21.5897 23.6522C21.1929 22.6335 20.9944 21.5512 20.9944 20.4052C20.9944 19.241 21.2019 18.1496 21.6168 17.1309C22.0498 16.1122 22.6361 15.23 23.3757 14.4842C24.1153 13.7384 24.9812 13.1472 25.9734 12.7106C26.9837 12.2741 28.0661 12.0558 29.2206 12.0558C30.3932 12.0558 31.4756 12.265 32.4678 12.6833C33.478 13.0835 34.3439 13.6565 35.0655 14.4023C35.7871 15.13 36.3464 15.994 36.7433 16.9945C37.1582 17.9949 37.3656 19.0864 37.3656 20.2687V21.6603H24.4851C24.7377 22.7881 25.2879 23.6976 26.1358 24.3889C26.9837 25.0801 28.057 25.4257 29.3559 25.4257C30.3842 25.4257 31.2772 25.1711 32.0348 24.6617C32.7925 24.1524 33.3608 23.4703 33.7396 22.6153L36.7433 24.3616C36.0577 25.6531 35.0926 26.6991 33.8479 27.4994C32.6211 28.2816 31.1238 28.6727 29.3559 28.6727ZM29.2206 15.3028C28.1202 15.3028 27.1641 15.6029 26.3523 16.2032C25.5585 16.8035 24.9993 17.5948 24.6746 18.577H33.6584C33.3878 17.5038 32.8647 16.6943 32.089 16.1486C31.3132 15.5847 30.3571 15.3028 29.2206 15.3028Z" fill="#040D1F"/>
<path d="M0 8.42678H3.65308L9.6333 16.8035L15.8571 8.42678H19.3478V28.3453H15.6677V14.375L9.60625 22.6153L3.68014 14.5115V28.3453H0V8.42678Z" fill="#040D1F"/>
<path fill-rule="evenodd" clip-rule="evenodd" d="M138.263 1.81836C138.079 1.41003 137.672 1.14206 137.221 1.14206H135.067L139.884 11.714H148.379C148.691 11.714 148.983 11.8543 149.18 12.1031L161.468 27.5243H164.296L150.146 9.76173C149.93 9.49376 149.606 9.33426 149.256 9.33426H141.625L141.32 8.65796L138.263 1.81836ZM160.007 27.5243L148.322 12.8624H139.807C139.407 12.8624 139.039 12.6263 138.873 12.2626L133.809 1.14206H130.956L137.526 14.6043C137.717 14.9935 138.117 15.2423 138.549 15.2423H147.394L147.737 15.6698L156.843 27.0968C157.059 27.3648 157.383 27.5243 157.733 27.5243H160.007ZM149.25 8.1922C149.942 8.1922 150.597 8.51121 151.029 9.05353L166.66 28.6727H157.726C157.034 28.6727 156.379 28.3537 155.947 27.8114L146.841 16.3844H138.543C137.672 16.3844 136.878 15.8867 136.497 15.102L129.126 -2.11928e-06H137.221C138.124 -2.11928e-06 138.937 0.529556 139.299 1.3526L142.355 8.1922H149.25Z" fill="#040D1F"/>
<path d="M135.716 19.2618L129.584 28.6726H138.08C138.467 28.6726 138.829 28.4748 139.039 28.1494L145.393 18.2282H137.628C136.86 18.2282 136.142 18.6174 135.722 19.2618H135.716Z" fill="#0058F0"/>
<path d="M156.951 0.976169L152.853 7.11394C152.573 7.52865 152.598 8.08373 152.916 8.47293L157.466 14.0939L166.667 -4.45048e-06H158.819C158.076 -4.45048e-06 157.383 0.363668 156.951 0.976169Z" fill="#0058F0"/>
</svg>
