<svg width="50" height="38" viewBox="0 0 50 38" fill="none" xmlns="http://www.w3.org/2000/svg">
<path fill-rule="evenodd" clip-rule="evenodd" d="M12.0613 2.40024C11.818 1.86124 11.2812 1.50752 10.6857 1.50752H7.8415L14.2002 15.4624H25.4143C25.8253 15.4624 26.2111 15.6477 26.4711 15.9762L42.691 36.332H46.425L27.7459 12.8855C27.4608 12.5318 27.033 12.3212 26.5717 12.3212H16.4983L16.0957 11.4285L12.0613 2.40024ZM40.7633 36.332L25.3388 16.9784H14.0995C13.5711 16.9784 13.0846 16.6667 12.8665 16.1867L6.18121 1.50752H2.41561L11.0883 19.2777C11.3399 19.7914 11.8684 20.1199 12.4387 20.1199H24.1141L24.5671 20.6842L36.5864 35.7678C36.8716 36.1215 37.2993 36.332 37.7607 36.332H40.7633ZM26.5633 10.8137C27.4775 10.8137 28.3415 11.2348 28.9118 11.9507L49.5451 37.848H37.7523C36.838 37.848 35.9741 37.4269 35.4038 36.711L23.3844 21.6274H12.4303C11.2812 21.6274 10.2328 20.9705 9.72953 19.9346L0 0H10.6857C11.8767 0 12.9503 0.699017 13.4284 1.78544L17.4628 10.8137H26.5633Z" fill="#1C40C3"/>
<path d="M8.69797 25.4256L0.604004 37.8479H11.8181C12.3298 37.8479 12.8079 37.5868 13.0846 37.1573L21.4722 24.0613H11.2226C10.2077 24.0613 9.25993 24.575 8.70636 25.4256H8.69797Z" fill="#16B5F9"/>
<path d="M36.7295 1.28855L31.3196 9.39041C30.9505 9.93783 30.9841 10.6705 31.4034 11.1843L37.4089 18.604L49.5541 0H39.1955C38.2141 0 37.2999 0.480048 36.7295 1.28855Z" fill="#16B5F9"/>
</svg>
