<svg width="221" height="54" viewBox="0 0 221 54" fill="none" xmlns="http://www.w3.org/2000/svg">
<g style="mix-blend-mode:luminosity">
<path d="M155.485 16.3458H159.057V13.1403L163.915 9.79073V16.3458H168.165V20.7039H163.915V28.5916C163.915 29.504 163.962 30.2484 164.058 30.8247C164.153 31.3769 164.343 31.8091 164.629 32.1213C164.939 32.4094 165.367 32.6015 165.915 32.6976C166.487 32.7936 167.237 32.8416 168.165 32.8416V37.4158H167.487C165.867 37.4158 164.51 37.2717 163.415 36.9836C162.343 36.6954 161.486 36.2152 160.843 35.5429C160.2 34.8466 159.736 33.9461 159.45 32.8416C159.188 31.7131 159.057 30.3084 159.057 28.6276V20.7039H155.485V16.3458Z" fill="#1C40C3"/>
<path d="M135.027 16.3458H139.813V18.9391C140.504 18.0266 141.373 17.2943 142.421 16.742C143.492 16.1898 144.707 15.9136 146.064 15.9136C148.66 15.9136 150.684 16.706 152.136 18.2907C153.613 19.8755 154.351 22.0845 154.351 24.9179V37.4158H149.457V25.4221C149.457 23.7893 149.065 22.5047 148.279 21.5683C147.493 20.6078 146.314 20.1276 144.743 20.1276C143.361 20.1276 142.195 20.6198 141.242 21.6043C140.313 22.5888 139.849 24.0054 139.849 25.8543V37.4158H135.027V16.3458Z" fill="#1C40C3"/>
<path d="M120.497 37.848C119.235 37.848 117.985 37.6079 116.747 37.1276C115.532 36.6234 114.437 35.9031 113.461 34.9666C112.484 34.0302 111.698 32.8896 111.103 31.545C110.508 30.1764 110.21 28.6276 110.21 26.8988C110.21 25.146 110.496 23.5973 111.067 22.2526C111.663 20.884 112.437 19.7314 113.389 18.795C114.365 17.8585 115.473 17.1502 116.711 16.67C117.973 16.1657 119.259 15.9136 120.569 15.9136C121.95 15.9136 123.224 16.1777 124.391 16.706C125.557 17.2342 126.522 17.9546 127.284 18.867V16.3458H132.106V37.4158H127.284V34.6785C126.522 35.663 125.545 36.4433 124.355 37.0196C123.164 37.5719 121.878 37.848 120.497 37.848ZM121.283 33.3819C122.188 33.3819 123.021 33.2138 123.783 32.8776C124.545 32.5415 125.2 32.0733 125.748 31.473C126.296 30.8727 126.724 30.1764 127.034 29.384C127.367 28.5916 127.534 27.7392 127.534 26.8268C127.534 25.9384 127.367 25.098 127.034 24.3056C126.724 23.5132 126.296 22.8289 125.748 22.2526C125.2 21.6523 124.545 21.1841 123.783 20.848C123.021 20.5118 122.188 20.3437 121.283 20.3437C120.402 20.3437 119.569 20.5118 118.783 20.848C118.021 21.1841 117.354 21.6403 116.782 22.2166C116.211 22.7929 115.758 23.4772 115.425 24.2696C115.116 25.0619 114.961 25.9143 114.961 26.8268C114.961 27.7392 115.116 28.6036 115.425 29.42C115.758 30.2124 116.211 30.9087 116.782 31.509C117.354 32.0853 118.021 32.5415 118.783 32.8776C119.569 33.2138 120.402 33.3819 121.283 33.3819Z" fill="#1C40C3"/>
<path d="M88.7737 10.7632H93.5958V18.867C94.3101 17.9546 95.1912 17.2342 96.239 16.706C97.3105 16.1777 98.5131 15.9136 99.8466 15.9136C102.442 15.9136 104.466 16.706 105.919 18.2907C107.395 19.8755 108.133 22.0845 108.133 24.9179V37.4158H103.204V25.4581C103.204 23.8013 102.811 22.5047 102.025 21.5683C101.24 20.6078 100.061 20.1276 98.4893 20.1276C97.8225 20.1276 97.1915 20.2597 96.5962 20.5238C96.0008 20.7639 95.477 21.1241 95.0245 21.6043C94.5959 22.0845 94.2506 22.6848 93.9887 23.4052C93.7505 24.1255 93.6315 24.9419 93.6315 25.8543V37.4158H88.7737V10.7632Z" fill="#1C40C3"/>
<path d="M76.9083 37.848C75.3843 37.848 73.9555 37.5599 72.622 36.9836C71.3123 36.4073 70.1693 35.6269 69.193 34.6425C68.2167 33.658 67.4428 32.5055 66.8713 31.1848C66.3236 29.8402 66.0497 28.4115 66.0497 26.8988C66.0497 25.3621 66.3236 23.9334 66.8713 22.6128C67.4428 21.2682 68.2167 20.1036 69.193 19.1191C70.1693 18.1107 71.3123 17.3303 72.622 16.778C73.9555 16.2018 75.3843 15.9136 76.9083 15.9136C78.0751 15.9136 79.1705 16.0817 80.1944 16.4179C81.2422 16.73 82.1947 17.1742 83.052 17.7505C83.9092 18.3268 84.6593 19.0111 85.3023 19.8035C85.9452 20.5958 86.4691 21.4722 86.8739 22.4327L82.5519 24.2696C82.0756 23.117 81.3375 22.2046 80.3373 21.5323C79.361 20.8359 78.2299 20.4878 76.944 20.4878C76.063 20.4878 75.2414 20.6559 74.4794 20.992C73.7412 21.3282 73.0864 21.7844 72.5149 22.3607C71.9672 22.9369 71.5385 23.6213 71.229 24.4136C70.9194 25.182 70.7646 26.0104 70.7646 26.8988C70.7646 27.7632 70.9194 28.5916 71.229 29.384C71.5385 30.1524 71.9672 30.8247 72.5149 31.4009C73.0864 31.9772 73.7531 32.4334 74.5151 32.7696C75.2771 33.1058 76.0987 33.2738 76.9797 33.2738C78.3371 33.2738 79.492 32.9137 80.4445 32.1933C81.4208 31.449 82.1471 30.5005 82.6233 29.348L86.9453 31.2209C86.5405 32.1813 86.0166 33.0697 85.3737 33.8861C84.7308 34.7025 83.9807 35.4108 83.1234 36.0111C82.29 36.5874 81.3494 37.0436 80.3016 37.3798C79.2539 37.6919 78.1227 37.848 76.9083 37.848Z" fill="#1C40C3"/>
<path d="M52.0431 16.3458H56.8295V19.4793C57.8058 17.3903 59.5917 16.3458 62.1873 16.3458C62.9493 16.3458 63.628 16.4299 64.2233 16.5979C64.8424 16.766 65.3901 16.9821 65.8664 17.2463L64.0447 21.8564C63.6875 21.6163 63.2827 21.4242 62.8303 21.2802C62.4016 21.1121 61.842 21.028 61.1515 21.028C59.7465 21.028 58.675 21.4362 57.9368 22.2526C57.2224 23.045 56.8652 24.3536 56.8652 26.1785V37.4158H52.0431V16.3458Z" fill="#1C40C3"/>
<path d="M39.3099 37.848C37.6668 37.848 36.1666 37.5719 34.8093 37.0196C33.452 36.4433 32.2851 35.663 31.3088 34.6785C30.3563 33.694 29.6062 32.5415 29.0585 31.2209C28.5346 29.8762 28.2727 28.4475 28.2727 26.9348C28.2727 25.3981 28.5465 23.9574 29.0942 22.6128C29.6657 21.2682 30.4397 20.1036 31.416 19.1191C32.3923 18.1347 33.5353 17.3543 34.845 16.778C36.1785 16.2018 37.6073 15.9136 39.1313 15.9136C40.6791 15.9136 42.1079 16.1898 43.4176 16.742C44.7511 17.2703 45.8941 18.0266 46.8466 19.0111C47.7991 19.9715 48.5373 21.1121 49.0612 22.4327C49.6088 23.7533 49.8827 25.194 49.8827 26.7547V28.5916H32.8804C33.2138 30.0803 33.9401 31.2809 35.0593 32.1933C36.1785 33.1058 37.5954 33.562 39.3099 33.562C40.6672 33.562 41.8459 33.2258 42.846 32.5535C43.8462 31.8812 44.5963 30.9807 45.0963 29.8522L49.0612 32.1573C48.1563 33.8621 46.8823 35.2428 45.2392 36.2993C43.62 37.3317 41.6435 37.848 39.3099 37.848ZM39.1313 20.1996C37.6787 20.1996 36.4166 20.5958 35.3451 21.3882C34.2973 22.1806 33.5591 23.2251 33.1305 24.5217H44.9892C44.632 23.105 43.9414 22.0365 42.9175 21.3162C41.8935 20.5718 40.6315 20.1996 39.1313 20.1996Z" fill="#1C40C3"/>
<path d="M0.560059 11.1234H5.38212L13.276 22.1806L21.4914 11.1234H26.0991V37.4158H21.2414V18.9751L13.2403 29.8522L5.41784 19.1552V37.4158H0.560059V11.1234Z" fill="#1C40C3"/>
<path fill-rule="evenodd" clip-rule="evenodd" d="M183.49 2.40024C183.247 1.86124 182.71 1.50752 182.114 1.50752H179.27L185.629 15.4624H196.843C197.254 15.4624 197.64 15.6477 197.9 15.9762L214.12 36.332H217.854L199.175 12.8855C198.889 12.5318 198.462 12.3212 198 12.3212H187.927L187.524 11.4285L183.49 2.40024ZM212.192 36.332L196.767 16.9784H185.528C185 16.9784 184.513 16.6667 184.295 16.1867L177.61 1.50752H173.844L182.517 19.2777C182.769 19.7914 183.297 20.1199 183.867 20.1199H195.543L195.996 20.6842L208.015 35.7678C208.3 36.1215 208.728 36.332 209.189 36.332H212.192ZM197.992 10.8137C198.906 10.8137 199.77 11.2348 200.341 11.9507L220.974 37.848H209.181C208.267 37.848 207.403 37.4269 206.832 36.711L194.813 21.6274H183.859C182.71 21.6274 181.661 20.9705 181.158 19.9346L171.429 0H182.114C183.305 0 184.379 0.699017 184.857 1.78544L188.892 10.8137H197.992Z" fill="#1C40C3"/>
<path d="M180.127 25.4256L172.033 37.8478H183.247C183.758 37.8478 184.237 37.5868 184.513 37.1573L192.901 24.0612H182.651C181.636 24.0612 180.689 24.575 180.135 25.4256H180.127Z" fill="#16B5F9"/>
<path d="M208.158 1.28855L202.748 9.39041C202.379 9.93783 202.413 10.6705 202.832 11.1843L208.838 18.604L220.983 0H210.624C209.643 0 208.729 0.480048 208.158 1.28855Z" fill="#16B5F9"/>
<path d="M1.41268 49.5565V42.6773H3.81553C5.42389 42.6773 6.09242 43.5881 6.09242 44.8089C6.09242 46.2622 5.10416 46.9308 3.6702 46.9308H2.25562V49.5565H1.41268ZM2.25562 46.1653H3.59269C4.73598 46.1653 5.22042 45.584 5.22042 44.7895C5.22042 43.9078 4.64878 43.4428 3.72833 43.4428H2.25562V46.1653ZM9.30399 49.6146C7.84097 49.6146 6.86239 48.5585 6.86239 47.2021C6.86239 45.8456 7.84097 44.7798 9.30399 44.7798C10.6992 44.7798 11.7359 45.7681 11.7359 47.2021C11.7359 48.636 10.6992 49.6146 9.30399 49.6146ZM9.30399 48.8976C10.2051 48.8976 10.9317 48.2097 10.9317 47.2021C10.9317 46.1944 10.2147 45.4968 9.30399 45.4968C8.31572 45.4968 7.66657 46.2622 7.66657 47.2021C7.66657 48.1419 8.32541 48.8976 9.30399 48.8976ZM13.8036 49.5565L12.1758 44.838H12.98L14.1718 48.3841H14.1911L15.2763 44.838H15.9545L17.0591 48.3841H17.0784L18.2605 44.838H19.0647L17.4369 49.5565H16.7006L15.6154 46.0975H15.6057L14.5206 49.5565H13.8036ZM23.9612 47.1149C23.9612 47.2408 23.9418 47.3765 23.9418 47.4346H20.26C20.3666 48.3163 20.9867 48.8976 21.8781 48.8976C22.5079 48.8976 22.9535 48.6263 23.2442 48.2678L23.7965 48.7329C23.3895 49.2561 22.7985 49.6146 21.849 49.6146C20.4538 49.6146 19.4655 48.6457 19.4655 47.2021C19.4655 45.7778 20.4441 44.7798 21.7909 44.7798C23.0795 44.7798 23.9612 45.7681 23.9612 47.1149ZM21.7812 45.4968C21.0254 45.4968 20.4247 45.9909 20.2794 46.7951H23.1764C23.0601 46.02 22.5563 45.4968 21.7812 45.4968ZM25.1118 49.5565V44.838H25.8966V45.7003H25.916C26.2551 45.1286 26.7977 44.7798 27.4468 44.7798C27.5147 44.7798 27.5728 44.7798 27.6406 44.7895V45.6615C27.5244 45.6518 27.4081 45.6421 27.3306 45.6421C26.4295 45.6421 25.8966 46.3301 25.8966 47.2796V49.5565H25.1118ZM32.5714 47.1149C32.5714 47.2408 32.5521 47.3765 32.5521 47.4346H28.8703C28.9769 48.3163 29.5969 48.8976 30.4883 48.8976C31.1181 48.8976 31.5638 48.6263 31.8545 48.2678L32.4067 48.7329C31.9998 49.2561 31.4088 49.6146 30.4593 49.6146C29.0641 49.6146 28.0758 48.6457 28.0758 47.2021C28.0758 45.7778 29.0544 44.7798 30.4011 44.7798C31.6898 44.7798 32.5714 45.7681 32.5714 47.1149ZM30.3914 45.4968C29.6357 45.4968 29.035 45.9909 28.8897 46.7951H31.7866C31.6704 46.02 31.1666 45.4968 30.3914 45.4968ZM35.7277 49.6146C34.4197 49.6146 33.412 48.6651 33.412 47.2311C33.412 45.8359 34.3906 44.7798 35.718 44.7798C36.435 44.7798 37.0454 45.1093 37.4039 45.6809H37.4135V42.4254H38.1983V49.5565H37.4426V48.6845H37.4329C37.0938 49.2561 36.4931 49.6146 35.7277 49.6146ZM35.8343 48.8976C36.7256 48.8976 37.4426 48.2291 37.4426 47.2311C37.4426 46.2622 36.7935 45.4968 35.8439 45.4968C34.9429 45.4968 34.2162 46.1847 34.2162 47.2311C34.2162 48.1806 34.8751 48.8976 35.8343 48.8976ZM44.7746 49.6146C43.9995 49.6146 43.4182 49.2658 43.0694 48.7038H43.05V49.5565H42.3039V42.4254H43.0887V45.6615H43.0984C43.4569 45.0996 44.0576 44.7798 44.7746 44.7798C46.1117 44.7798 47.0709 45.8359 47.0709 47.2311C47.0709 48.6651 46.0729 49.6146 44.7746 49.6146ZM44.668 48.8976C45.6176 48.8976 46.2764 48.1806 46.2764 47.2311C46.2764 46.1847 45.5497 45.4968 44.6583 45.4968C43.6991 45.4968 43.05 46.2622 43.05 47.2311C43.05 48.2291 43.767 48.8976 44.668 48.8976ZM48.6016 51.4749L49.4445 49.3724L47.4389 44.838H48.2915L49.8224 48.4229H49.8418L51.266 44.838H52.0896L49.4155 51.4749H48.6016ZM55.8087 49.5565V42.6773H56.6613L59.1901 47.1245H59.2095L61.7383 42.6773H62.5812V49.5565H61.7383V44.3148H61.7189L59.4808 48.171H58.9091L56.671 44.3148H56.6613V49.5565H55.8087ZM64.2865 49.5565V42.6773H66.5343C67.8714 42.6773 68.7531 43.1812 68.7531 44.3535C68.7531 45.0221 68.4043 45.6615 67.6582 45.9231V45.9425C68.4624 46.1072 69.0922 46.6885 69.0922 47.6865C69.0922 48.7814 68.3558 49.5565 66.7959 49.5565H64.2865ZM65.1294 45.6421H66.544C67.2513 45.6421 67.8908 45.3515 67.8908 44.5182C67.8908 43.8594 67.4548 43.4331 66.4471 43.4331L65.1294 43.4428V45.6421ZM65.1294 48.791H66.7184C67.6195 48.791 68.2105 48.4132 68.2105 47.6187C68.2105 46.8436 67.6582 46.3785 66.5924 46.3785H65.1294V48.791ZM70.4367 49.5565V42.6773H72.6845C74.0216 42.6773 74.9033 43.1812 74.9033 44.3535C74.9033 45.0221 74.5545 45.6615 73.8084 45.9231V45.9425C74.6126 46.1072 75.2424 46.6885 75.2424 47.6865C75.2424 48.7814 74.506 49.5565 72.9461 49.5565H70.4367ZM71.2796 45.6421H72.6942C73.4015 45.6421 74.0409 45.3515 74.0409 44.5182C74.0409 43.8594 73.6049 43.4331 72.5973 43.4331L71.2796 43.4428V45.6421ZM71.2796 48.791H72.8686C73.7697 48.791 74.3607 48.4132 74.3607 47.6187C74.3607 46.8436 73.8084 46.3785 72.7426 46.3785H71.2796V48.791ZM78.4568 49.6146C77.1585 49.6146 76.1605 48.6651 76.1605 47.2311C76.1605 45.8359 77.1197 44.7798 78.4568 44.7798C79.1544 44.7798 79.7648 45.1093 80.1039 45.6809L80.1233 45.6712V44.838H80.9081V49.5565H80.1524V48.7038H80.1427C79.8036 49.2658 79.2222 49.6146 78.4568 49.6146ZM78.5731 48.8976C79.4451 48.8976 80.1524 48.2291 80.1524 47.2311C80.1524 46.2622 79.5032 45.4968 78.5731 45.4968C77.6817 45.4968 76.955 46.1847 76.955 47.2311C76.955 48.1806 77.6042 48.8976 78.5731 48.8976ZM82.318 49.5565V44.838H83.1028V45.6906H83.1125C83.4807 45.1189 84.1007 44.7798 84.8274 44.7798C85.8448 44.7798 86.523 45.4096 86.523 46.7564V49.5565H85.7382V46.9792C85.7382 45.8747 85.2634 45.4968 84.5755 45.4968C83.6841 45.4968 83.1028 46.1363 83.1028 47.2021V49.5565H82.318ZM87.9005 49.5565V42.4254H88.6853V47.4152L88.695 47.4249L91.0106 44.838H91.9601L90.1967 46.7854L91.9795 49.5565H91.0784L89.6542 47.3377L88.6853 48.3841V49.5565H87.9005Z" fill="black"/>
<path fill-rule="evenodd" clip-rule="evenodd" d="M99.8646 42.6816C99.8067 42.5005 99.8414 42.3154 99.9317 42.1637L101.13 40.1571C101.223 39.999 101.373 39.8752 101.559 39.8138C101.975 39.6767 102.421 39.9077 102.556 40.3298C102.649 40.62 102.561 40.9148 102.377 41.1318C102.373 41.1361 100.882 42.8953 100.878 42.8995C100.81 42.9765 100.722 43.0373 100.618 43.0716C100.304 43.1753 99.9667 43.0007 99.8646 42.6816ZM98.7002 44.6476L97.001 43.898C96.8394 43.8224 96.7145 43.674 96.6847 43.4829C96.6382 43.1847 96.8385 42.9047 97.132 42.8575C97.2069 42.8454 97.2806 42.8498 97.3496 42.8678L99.9144 43.4466C100.22 43.5162 100.466 43.7704 100.518 44.1036C100.586 44.5419 100.292 44.9536 99.8604 45.023C99.6973 45.0492 99.5405 45.019 99.3992 44.956L98.7002 44.6476ZM104.237 45.081C104.067 45.0409 103.883 45.0649 103.732 45.1771C103.465 45.3747 103.406 45.7547 103.601 46.0257C103.665 46.1153 103.749 46.1813 103.843 46.223C103.848 46.2255 105.957 47.1196 105.962 47.1217C106.222 47.232 106.525 47.2251 106.768 47.0453C107.121 46.7839 107.199 46.2812 106.941 45.9226C106.826 45.7621 106.664 45.6558 106.487 45.6152L104.237 45.081ZM102.595 49.6755C102.747 49.7874 102.826 49.9579 102.841 50.1346L103.032 52.4735C103.049 52.6569 102.999 52.8466 102.884 53.0073C102.627 53.3664 102.133 53.4461 101.779 53.1852C101.536 53.0059 101.436 52.7151 101.46 52.4296L101.483 52.1413L101.483 52.1388C101.534 51.5159 101.649 50.1088 101.649 50.1043C101.66 50.0014 101.696 49.8998 101.76 49.81C101.954 49.5386 102.328 49.4784 102.595 49.6755ZM97.6702 50.3561C97.8311 50.2874 97.9664 50.1585 98.0245 49.9775C98.1269 49.6585 97.9553 49.3157 97.6414 49.2117C97.5376 49.1774 97.4314 49.1739 97.3318 49.1955C97.3262 49.1966 95.101 49.7269 95.0956 49.7282C94.821 49.7936 94.5794 49.9795 94.4863 50.2696C94.3508 50.6916 94.5778 51.1451 94.9931 51.2827C95.179 51.3442 95.3719 51.3339 95.5387 51.2616L97.6702 50.3561ZM96.337 45.6488C96.1496 45.6489 95.9869 45.5583 95.8727 45.4242L94.3639 43.6468C94.2445 43.5082 94.1749 43.3251 94.1748 43.1264C94.1746 42.6827 94.5287 42.3228 94.9655 42.3226C95.2659 42.3225 95.5149 42.4981 95.6613 42.7429L95.8481 43.0552C96.183 43.6154 96.8516 44.7334 96.8537 44.7372C96.9048 44.8267 96.9346 44.9303 96.9347 45.0412C96.9348 45.3767 96.6672 45.6487 96.337 45.6488ZM101.71 42.7821C101.71 42.7865 101.56 44.3671 101.492 45.082L101.46 45.426C101.444 45.5819 101.464 45.7428 101.539 45.8922C101.737 46.2877 102.214 46.4452 102.603 46.2439C102.899 46.0908 103.061 45.7744 103.032 45.4579L102.782 42.801C102.778 42.7287 102.759 42.6562 102.725 42.5875C102.59 42.3185 102.266 42.2114 102.001 42.3484C101.831 42.4361 101.731 42.6026 101.71 42.7821ZM101.656 47.5632C101.662 47.5619 104.203 46.987 104.208 46.9858C104.383 46.9504 104.57 46.9958 104.705 47.1325C104.915 47.3459 104.915 47.692 104.705 47.9056C104.651 47.9601 104.589 48.0005 104.523 48.0272L102.114 49.0917C101.827 49.2178 101.48 49.1594 101.245 48.921C100.936 48.6073 100.936 48.0985 101.245 47.7845C101.361 47.6659 101.506 47.5966 101.656 47.5632ZM101.046 50.7009L100.016 48.9245L99.7189 48.4126C99.6411 48.2772 99.5318 48.1591 99.3847 48.0829C98.9955 47.8813 98.5191 48.0383 98.3207 48.4337C98.1698 48.7343 98.2219 49.087 98.4285 49.3256L100.168 51.3259C100.213 51.3817 100.27 51.4293 100.338 51.4642C100.603 51.6014 100.927 51.4946 101.062 51.2256C101.148 51.0533 101.133 50.8585 101.046 50.7009ZM97.9408 47.2441C97.4312 47.829 96.5937 48.7902 96.591 48.7932C96.4703 48.9259 96.2927 49.0005 96.1046 48.9701C95.8111 48.9227 95.611 48.6425 95.6577 48.3444C95.6696 48.2684 95.6966 48.1986 95.7348 48.1375L97.0707 45.8393C97.2304 45.5659 97.5446 45.4067 97.8726 45.4597C98.304 45.5295 98.5981 45.9413 98.5295 46.3796C98.5035 46.5452 98.4267 46.6873 98.324 46.8043C98.3229 46.8056 98.163 46.989 97.9408 47.2441Z" fill="#EB2D4B"/>
</g>
</svg>
