<svg xmlns="http://www.w3.org/2000/svg" width="60" height="60" viewBox="0 0 60 60" fill="none">
  <path d="M0 12C0 5.37258 5.37258 0 12 0H48C54.6274 0 60 5.37258 60 12V48C60 54.6274 54.6274 60 48 60H12C5.37258 60 0 54.6274 0 48V12Z" fill="#FFF5E6"/>
  <path d="M26.7312 19.4858C29.1963 18.7192 31.8525 18.8432 34.2355 19.8361C36.4329 20.7518 38.2692 22.3526 39.476 24.3922H36.2078V26.3753H42.8068V19.7763H40.8238V22.8102C39.4062 20.6759 37.3823 18.999 34.9982 18.0056C32.186 16.8338 29.0514 16.6875 26.1423 17.5923C23.2331 18.497 20.7344 20.3953 19.0828 22.9553C17.4312 25.5154 16.7317 28.5745 17.1066 31.5979C17.4815 34.6214 18.9069 37.4169 21.1338 39.496C23.3607 41.5752 26.2474 42.8057 29.2894 42.9725C32.3314 43.1393 35.3353 42.2318 37.7762 40.4086C40.217 38.5854 41.9396 35.9624 42.6428 32.9981L42.8717 32.0334L40.9422 31.5756L40.7133 32.5404C40.1174 35.0523 38.6578 37.2749 36.5895 38.8198C34.5211 40.3648 31.9757 41.1337 29.398 40.9924C26.8202 40.8511 24.3741 39.8084 22.4871 38.0466C20.6001 36.2848 19.3923 33.9159 19.0746 31.3539C18.7569 28.7919 19.3496 26.1997 20.7491 24.0304C22.1487 21.8611 24.266 20.2525 26.7312 19.4858Z" fill="#DF7202"/>
  <path fill-rule="evenodd" clip-rule="evenodd" d="M33.759 28.6217H34.9909V35.938H25.0078V28.6217H26.2368V27.3027C26.2368 26.3052 26.6331 25.3485 27.3384 24.6432C28.0437 23.9378 29.0004 23.5416 29.9979 23.5416C30.9954 23.5416 31.952 23.9378 32.6574 24.6432C33.3627 25.3485 33.759 26.3052 33.759 27.3027V28.6217ZM31.7759 28.6217V27.3027C31.7759 26.8311 31.5886 26.3789 31.2551 26.0454C30.9217 25.712 30.4695 25.5246 29.9979 25.5246C29.5263 25.5246 29.0741 25.712 28.7406 26.0454C28.4072 26.3789 28.2199 26.8311 28.2199 27.3027V28.6217H31.7759ZM26.9909 30.6047V33.955H33.0078V30.6047H26.9909Z" fill="#DF7202"/>
</svg>
