<svg width="123" height="120" viewBox="0 0 123 120" fill="none" xmlns="http://www.w3.org/2000/svg">
<path d="M55.0864 3.02219C57.475 -0.390214 62.5287 -0.390207 64.9173 3.0222L74.4635 16.6601C75.8011 18.571 78.1248 19.5335 80.4218 19.1281L96.8154 16.2348C100.917 15.5109 104.491 19.0844 103.767 23.1863L100.874 39.58C100.468 41.8769 101.431 44.2007 103.342 45.5382L116.98 55.0845C120.392 57.4731 120.392 62.5267 116.98 64.9153L103.342 74.4616C101.431 75.7991 100.468 78.1229 100.874 80.4198L103.767 96.8135C104.491 100.915 100.917 104.489 96.8154 103.765L80.4218 100.872C78.1248 100.466 75.8011 101.429 74.4635 103.34L64.9173 116.978C62.5287 120.39 57.475 120.39 55.0864 116.978L45.5402 103.34C44.2026 101.429 41.8789 100.466 39.5819 100.872L23.1883 103.765C19.0863 104.489 15.5129 100.915 16.2368 96.8135L19.1301 80.4198C19.5354 78.1228 18.5729 75.7991 16.6621 74.4616L3.02414 64.9153C-0.388261 62.5267 -0.388253 57.4731 3.02415 55.0845L16.6621 45.5382C18.5729 44.2007 19.5354 41.8769 19.13 39.58L16.2368 23.1863C15.5129 19.0844 19.0863 15.5109 23.1883 16.2348L39.5819 19.1281C41.8789 19.5335 44.2026 18.571 45.5402 16.6601L55.0864 3.02219Z" fill="#231F20"/>
<path d="M59.0864 4.02219C61.475 0.609788 66.5287 0.609792 68.9173 4.0222L78.2033 17.2883C79.5408 19.1992 81.8646 20.1617 84.1615 19.7563L100.108 16.9419C104.21 16.218 107.784 19.7915 107.06 23.8934L104.245 39.8402C103.84 42.1372 104.803 44.4609 106.713 45.7985L119.98 55.0845C123.392 57.4731 123.392 62.5267 119.98 64.9153L106.713 74.2013C104.803 75.5389 103.84 77.8626 104.245 80.1596L107.06 96.1064C107.784 100.208 104.21 103.782 100.108 103.058L84.1615 100.243C81.8646 99.8381 79.5408 100.801 78.2033 102.711L68.9173 115.978C66.5287 119.39 61.475 119.39 59.0864 115.978L49.8004 102.711C48.4629 100.801 46.1391 99.8381 43.8422 100.243L27.8954 103.058C23.7935 103.782 20.22 100.208 20.9439 96.1064L23.7583 80.1596C24.1637 77.8626 23.2011 75.5389 21.2903 74.2013L8.02414 64.9153C4.61174 62.5267 4.61175 57.4731 8.02415 55.0845L21.2903 45.7985C23.2011 44.4609 24.1637 42.1372 23.7583 39.8402L20.9439 23.8934C20.22 19.7915 23.7935 16.218 27.8954 16.9419L43.8422 19.7563C46.1391 20.1617 48.4629 19.1992 49.8004 17.2883L59.0864 4.02219Z" fill="white"/>
<path fill-rule="evenodd" clip-rule="evenodd" d="M77.3841 17.8618L68.0981 4.59564C66.1075 1.75197 61.8962 1.75197 59.9056 4.59564L50.6196 17.8618C49.0592 20.0911 46.3481 21.2141 43.6684 20.7411L27.7216 17.9267C24.3033 17.3234 21.3254 20.3013 21.9287 23.7196L24.7431 39.6664C25.216 42.3462 24.0931 45.0572 21.8638 46.6177L8.5976 55.9037C5.75393 57.8942 5.75393 62.1056 8.59759 64.0961L21.8637 73.3821C24.0931 74.9426 25.216 77.6536 24.7431 80.3334L21.9287 96.2802C21.3254 99.6984 24.3033 102.676 27.7216 102.073L43.6684 99.2587C46.3481 98.7857 49.0592 99.9087 50.6196 102.138L59.9056 115.404C61.8961 118.248 66.1075 118.248 68.098 115.404L77.3841 102.138C78.9445 99.9087 81.6556 98.7857 84.3353 99.2587L100.282 102.073C103.7 102.676 106.678 99.6984 106.075 96.2802L103.261 80.3334C102.788 77.6536 103.911 74.9426 106.14 73.3821L119.406 64.0961C122.25 62.1056 122.25 57.8942 119.406 55.9037L106.14 46.6177C103.911 45.0572 102.788 42.3462 103.261 39.6664L106.075 23.7196C106.678 20.3014 103.7 17.3234 100.282 17.9267L84.3353 20.7411C81.6556 21.2141 78.9445 20.0911 77.3841 17.8618ZM68.9173 4.0222C66.5287 0.609792 61.475 0.609788 59.0864 4.02219L49.8004 17.2883C48.4629 19.1992 46.1391 20.1617 43.8422 19.7563L27.8954 16.9419C23.7935 16.218 20.22 19.7915 20.9439 23.8934L23.7583 39.8402C24.1637 42.1372 23.2011 44.4609 21.2903 45.7985L8.02415 55.0845C4.61174 57.4731 4.61174 62.5267 8.02414 64.9153L21.2903 74.2013C23.2011 75.5389 24.1637 77.8626 23.7583 80.1596L20.9439 96.1064C20.22 100.208 23.7934 103.782 27.8954 103.058L43.8422 100.243C46.1391 99.8381 48.4629 100.801 49.8004 102.711L59.0864 115.978C61.475 119.39 66.5287 119.39 68.9173 115.978L78.2033 102.711C79.5408 100.801 81.8646 99.8381 84.1615 100.243L100.108 103.058C104.21 103.782 107.784 100.208 107.06 96.1064L104.245 80.1596C103.84 77.8626 104.803 75.5389 106.713 74.2013L119.98 64.9153C123.392 62.5267 123.392 57.4731 119.98 55.0845L106.713 45.7985C104.803 44.4609 103.84 42.1372 104.245 39.8402L107.06 23.8934C107.784 19.7915 104.21 16.218 100.108 16.9419L84.1615 19.7563C81.8646 20.1617 79.5408 19.1992 78.2033 17.2883L68.9173 4.0222Z" fill="#231F20"/>
<path d="M86.1236 31.1209C84.952 29.9493 83.0525 29.9493 81.881 31.1209L64.0023 48.9995L46.2119 31.2092C45.0403 30.0376 43.1409 30.0376 41.9693 31.2092L34.8982 38.2802C33.7266 39.4518 33.7266 41.3513 34.8982 42.5229L52.6886 60.3133L35.2119 77.7899C34.0403 78.9615 34.0403 80.861 35.2119 82.0326L42.283 89.1036C43.4546 90.2752 45.3541 90.2752 46.5256 89.1036L64.0023 71.627L81.5673 89.1919C82.7388 90.3635 84.6383 90.3635 85.8099 89.1919L92.881 82.1209C94.0525 80.9493 94.0525 79.0498 92.881 77.8782L75.316 60.3133L93.1947 42.4346C94.3662 41.263 94.3662 39.3635 93.1947 38.1919L86.1236 31.1209Z" fill="#231F20"/>
<path d="M88.1236 31.1209C86.952 29.9493 85.0525 29.9493 83.881 31.1209L66.0023 48.9995L48.2119 31.2092C47.0403 30.0376 45.1409 30.0376 43.9693 31.2092L36.8982 38.2802C35.7266 39.4518 35.7266 41.3513 36.8982 42.5229L54.6886 60.3133L37.2119 77.7899C36.0403 78.9615 36.0403 80.861 37.2119 82.0326L44.283 89.1036C45.4546 90.2752 47.3541 90.2752 48.5256 89.1036L66.0023 71.627L83.5673 89.1919C84.7388 90.3635 86.6383 90.3635 87.8099 89.1919L94.881 82.1209C96.0525 80.9493 96.0525 79.0498 94.881 77.8782L77.316 60.3133L95.1947 42.4346C96.3662 41.263 96.3662 39.3635 95.1947 38.1919L88.1236 31.1209Z" fill="#EB2D4B"/>
<path fill-rule="evenodd" clip-rule="evenodd" d="M95.1947 42.4346C96.3662 41.263 96.3662 39.3635 95.1947 38.1919L88.1236 31.1209C86.952 29.9493 85.0525 29.9493 83.881 31.1209L66.0023 48.9995L48.2119 31.2092C47.0403 30.0376 45.1409 30.0376 43.9693 31.2092L36.8982 38.2802C35.7266 39.4518 35.7266 41.3513 36.8982 42.5229L54.6886 60.3133L37.2119 77.7899C36.0403 78.9615 36.0403 80.861 37.2119 82.0326L44.283 89.1036C45.4546 90.2752 47.3541 90.2752 48.5256 89.1036L66.0023 71.627L83.5673 89.1919C84.7388 90.3635 86.6383 90.3635 87.8099 89.1919L94.881 82.1209C96.0525 80.9493 96.0525 79.0498 94.881 77.8782L77.316 60.3133L95.1947 42.4346ZM66.0023 50.4138L47.5048 31.9163C46.7238 31.1352 45.4574 31.1352 44.6764 31.9163L37.6053 38.9874C36.8243 39.7684 36.8243 41.0347 37.6053 41.8158L56.1028 60.3133L37.919 78.497C37.138 79.2781 37.138 80.5444 37.919 81.3254L44.9901 88.3965C45.7711 89.1776 47.0375 89.1776 47.8185 88.3965L66.0023 70.2127L84.2744 88.4848C85.0554 89.2659 86.3217 89.2659 87.1028 88.4848L94.1739 81.4138C94.9549 80.6327 94.9549 79.3664 94.1739 78.5853L75.9018 60.3133L94.4876 41.7275C95.2686 40.9464 95.2686 39.6801 94.4876 38.899L87.4165 31.828C86.6354 31.0469 85.3691 31.0469 84.5881 31.828L66.0023 50.4138Z" fill="#231F20"/>
</svg>
