<svg width="108" height="129" viewBox="0 0 108 129" fill="none" xmlns="http://www.w3.org/2000/svg">
<path d="M58 129C82.3005 129 102 126.09 102 122.5C102 118.91 82.3005 116 58 116C33.6995 116 14 118.91 14 122.5C14 126.09 33.6995 129 58 129Z" fill="#231F20"/>
<path d="M54.1731 4.69926L47.7891 5.58984L49.8041 20.0771L56.1881 19.1865L54.1731 4.69926Z" fill="#0058F0"/>
<path d="M86.444 119.81L80.9475 121.488C80.0045 121.779 79.0051 121.311 78.6102 120.407L71.9692 105.027C71.5098 103.97 72.074 102.751 73.1781 102.412L82.1806 99.6605C83.2766 99.3216 84.4211 100.016 84.6387 101.145L87.7738 117.599C87.9592 118.567 87.387 119.519 86.444 119.81Z" fill="#0058F0"/>
<path d="M40.0609 103.758C59.8925 102.856 75.176 84.6318 74.1975 63.0526C73.2191 41.4735 56.3492 24.7112 36.5176 25.6131C16.6861 26.515 1.40257 44.7395 2.38102 66.3186C3.35948 87.8978 20.2294 104.66 40.0609 103.758Z" fill="#0058F0"/>
<path d="M47.2788 108.54C69.537 107.528 86.6905 87.0734 85.5923 62.8538C84.4941 38.6342 65.5601 19.821 43.302 20.8332C21.0438 21.8454 3.89025 42.2999 4.98843 66.5194C6.0866 90.739 25.0207 109.552 47.2788 108.54Z" fill="#0058F0"/>
<path d="M43.2503 123.135L37.6592 122.355C36.7088 122.225 35.9926 121.332 36.0079 120.285L36.2651 102.446C36.2862 101.216 37.2817 100.279 38.3943 100.442L47.5465 101.721C48.6582 101.876 49.4023 103.051 49.1467 104.239L45.3206 121.579C45.096 122.599 44.2016 123.274 43.2424 123.136L43.2503 123.135Z" fill="#0058F0"/>
<path d="M90.6598 19.8486C91.7837 15.8308 88.7581 11.4693 83.9019 10.1068C79.0457 8.74439 74.1979 10.8969 73.074 14.9147C71.9502 18.9324 74.9758 23.2939 79.8319 24.6564C84.6881 26.0188 89.5359 23.8663 90.6598 19.8486Z" fill="#0058F0"/>
<path d="M51.1432 7.05376C55.7689 6.5734 59.3802 4.84528 59.2092 3.1939C59.0382 1.54252 55.1497 0.593224 50.524 1.07359C45.8983 1.55395 42.287 3.28207 42.458 4.93345C42.629 6.58483 46.5175 7.53412 51.1432 7.05376Z" fill="#0058F0"/>
<path d="M30.3182 27.7282C34.8951 25.6073 37.1872 20.8182 35.4377 17.0315C33.6881 13.2448 28.5595 11.8944 23.9826 14.0153C19.4057 16.1361 17.1136 20.9252 18.8631 24.7119C20.6126 28.4987 25.7412 29.8491 30.3182 27.7282Z" fill="#0058F0"/>
<path d="M60.7628 108.58C84.6408 107.494 103.043 85.5515 101.865 59.5694C100.686 33.5873 80.3745 13.4049 56.4966 14.4908C32.6186 15.5767 14.2168 37.5197 15.3948 63.5018C16.5729 89.4839 36.8849 109.666 60.7628 108.58Z" fill="white"/>
<path fill-rule="evenodd" clip-rule="evenodd" d="M56.6324 17.489C34.6428 18.489 17.2777 38.7965 18.3917 63.3668C19.5058 87.937 38.6373 106.585 60.6269 105.585C82.6165 104.585 99.9817 84.2772 98.8676 59.707C97.7535 35.1367 78.622 16.489 56.6324 17.489ZM12.3979 63.6393C11.1558 36.2454 30.5943 12.667 56.3606 11.4952C82.1269 10.3234 103.619 32.0404 104.861 59.4344C106.104 86.8284 86.665 110.407 60.8987 111.579C35.1324 112.75 13.64 91.0333 12.3979 63.6393Z" fill="#231F20"/>
<path d="M55.2065 31.9501L54.4868 32.0505C53.5578 32.1801 52.9096 33.0394 53.039 33.9697L57.5333 66.2821C57.6627 67.2124 58.5207 67.8616 59.4497 67.732L60.1694 67.6316C61.0984 67.502 61.7466 66.6427 61.6172 65.7123L57.1229 33.4C56.9935 32.4697 56.1355 31.8205 55.2065 31.9501Z" fill="#0058F0"/>
<path d="M73.9054 77.1585L74.3435 76.5778C74.9088 75.8283 74.7605 74.7617 74.0121 74.1955L60.7071 64.129C59.9587 63.5628 58.8936 63.7113 58.3282 64.4608L57.8902 65.0415C57.3248 65.7911 57.4732 66.8577 58.2215 67.4239L71.5266 77.4904C72.275 78.0566 73.34 77.908 73.9054 77.1585Z" fill="#0058F0"/>
</svg>
