<svg width="167" height="40" viewBox="0 0 167 40" fill="none" xmlns="http://www.w3.org/2000/svg">
<path d="M117.367 12.383H120.073V9.95456L123.754 7.41699V12.383H126.974V15.6845H123.754V21.6601C123.754 22.3513 123.79 22.9152 123.862 23.3518C123.934 23.7702 124.078 24.0976 124.295 24.3341C124.529 24.5524 124.854 24.6979 125.269 24.7707C125.702 24.8434 126.27 24.8798 126.974 24.8798V28.3451H126.46C125.233 28.3451 124.205 28.2359 123.375 28.0176C122.563 27.7994 121.913 27.4356 121.426 26.9262C120.939 26.3987 120.588 25.7166 120.371 24.8798C120.173 24.0248 120.073 22.9607 120.073 21.6874V15.6845H117.367V12.383Z" fill="#040D1F"/>
<path d="M101.869 12.383H105.495V14.3475C106.018 13.6563 106.677 13.1015 107.47 12.6831C108.282 12.2647 109.202 12.0555 110.23 12.0555C112.197 12.0555 113.73 12.6558 114.831 13.8564C115.949 15.057 116.508 16.7305 116.508 18.877V28.3451H112.801V19.259C112.801 18.022 112.503 17.0488 111.908 16.3394C111.313 15.6118 110.42 15.248 109.229 15.248C108.183 15.248 107.299 15.6209 106.577 16.3667C105.874 17.1125 105.522 18.1857 105.522 19.5864V28.3451H101.869V12.383Z" fill="#040D1F"/>
<path d="M90.8615 28.6725C89.9053 28.6725 88.9583 28.4906 88.0202 28.1268C87.1001 27.7448 86.2703 27.1991 85.5307 26.4896C84.791 25.7802 84.1957 24.9162 83.7447 23.8975C83.2937 22.8607 83.0682 21.6874 83.0682 20.3777C83.0682 19.0498 83.2847 17.8765 83.7177 16.8578C84.1687 15.821 84.755 14.9478 85.4766 14.2384C86.2162 13.529 87.055 12.9924 87.9931 12.6285C88.9492 12.2465 89.9234 12.0555 90.9156 12.0555C91.9619 12.0555 92.927 12.2556 93.811 12.6558C94.6949 13.056 95.4256 13.6017 96.0028 14.293V12.383H99.6559V28.3451H96.0028V26.2714C95.4256 27.0172 94.6859 27.6084 93.7839 28.0449C92.8819 28.4633 91.9078 28.6725 90.8615 28.6725ZM91.4568 25.2891C92.1423 25.2891 92.7737 25.1617 93.351 24.9071C93.9282 24.6524 94.4243 24.2977 94.8393 23.8429C95.2542 23.3882 95.5789 22.8607 95.8134 22.2604C96.066 21.6601 96.1923 21.0143 96.1923 20.3231C96.1923 19.6501 96.066 19.0134 95.8134 18.4131C95.5789 17.8128 95.2542 17.2944 94.8393 16.8578C94.4243 16.4031 93.9282 16.0483 93.351 15.7937C92.7737 15.539 92.1423 15.4117 91.4568 15.4117C90.7893 15.4117 90.1579 15.539 89.5626 15.7937C88.9853 16.0483 88.4802 16.394 88.0472 16.8305C87.6143 17.2671 87.2715 17.7855 87.019 18.3858C86.7844 18.9861 86.6672 19.6319 86.6672 20.3231C86.6672 21.0143 86.7844 21.6692 87.019 22.2877C87.2715 22.8879 87.6143 23.4155 88.0472 23.8702C88.4802 24.3068 88.9853 24.6524 89.5626 24.9071C90.1579 25.1617 90.7893 25.2891 91.4568 25.2891Z" fill="#040D1F"/>
<path d="M66.8285 8.1537H70.4816V14.293C71.0228 13.6017 71.6903 13.056 72.484 12.6558C73.2958 12.2556 74.2068 12.0555 75.2171 12.0555C77.1834 12.0555 78.7168 12.6558 79.8172 13.8564C80.9357 15.057 81.4949 16.7305 81.4949 18.877V28.3451H77.7607V19.2862C77.7607 18.0311 77.463 17.0488 76.8677 16.3394C76.2724 15.6118 75.3794 15.248 74.1888 15.248C73.6837 15.248 73.2056 15.348 72.7546 15.5481C72.3036 15.73 71.9067 16.0029 71.564 16.3667C71.2393 16.7305 70.9777 17.1852 70.7792 17.731C70.5988 18.2767 70.5087 18.8951 70.5087 19.5864V28.3451H66.8285V8.1537Z" fill="#040D1F"/>
<path d="M57.8396 28.6725C56.685 28.6725 55.6026 28.4542 54.5924 28.0176C53.6002 27.5811 52.7343 26.9899 51.9946 26.2441C51.255 25.4983 50.6687 24.6251 50.2358 23.6247C49.8208 22.606 49.6134 21.5237 49.6134 20.3777C49.6134 19.2135 49.8208 18.1312 50.2358 17.1307C50.6687 16.112 51.255 15.2298 51.9946 14.484C52.7343 13.72 53.6002 13.1288 54.5924 12.7104C55.6026 12.2738 56.685 12.0555 57.8396 12.0555C58.7235 12.0555 59.5534 12.1829 60.3291 12.4375C61.1228 12.674 61.8444 13.0105 62.4939 13.4471C63.1433 13.8837 63.7116 14.4021 64.1986 15.0024C64.6857 15.6027 65.0826 16.2666 65.3893 16.9942L62.115 18.3858C61.7542 17.5127 61.195 16.8214 60.4373 16.3121C59.6977 15.7846 58.8408 15.5208 57.8666 15.5208C57.1992 15.5208 56.5768 15.6482 55.9995 15.9028C55.4403 16.1575 54.9442 16.5031 54.5112 16.9397C54.0963 17.3762 53.7716 17.8947 53.5371 18.495C53.3025 19.0771 53.1853 19.7046 53.1853 20.3777C53.1853 21.0325 53.3025 21.6601 53.5371 22.2604C53.7716 22.8425 54.0963 23.3518 54.5112 23.7884C54.9442 24.2249 55.4493 24.5706 56.0266 24.8252C56.6038 25.0799 57.2262 25.2072 57.8937 25.2072C58.922 25.2072 59.7969 24.9344 60.5185 24.3887C61.2581 23.8248 61.8084 23.1062 62.1692 22.2331L65.4434 23.6519C65.1367 24.3796 64.7398 25.0526 64.2528 25.6711C63.7657 26.2896 63.1974 26.8262 62.548 27.2809C61.9166 27.7175 61.204 28.0631 60.4103 28.3178C59.6165 28.5543 58.7596 28.6725 57.8396 28.6725Z" fill="#040D1F"/>
<path d="M39.0023 12.383H42.6283V14.7568C43.368 13.1743 44.721 12.383 46.6873 12.383C47.2646 12.383 47.7787 12.4466 48.2297 12.574C48.6988 12.7013 49.1137 12.865 49.4745 13.0651L48.0944 16.5577C47.8238 16.3758 47.5172 16.2303 47.1744 16.1211C46.8497 15.9938 46.4257 15.9301 45.9026 15.9301C44.8382 15.9301 44.0264 16.2393 43.4672 16.8578C42.926 17.4581 42.6554 18.4495 42.6554 19.832V28.3451H39.0023V12.383Z" fill="#040D1F"/>
<path d="M29.3559 28.6725C28.1112 28.6725 26.9747 28.4633 25.9464 28.0449C24.9181 27.6084 24.0341 27.0172 23.2945 26.2714C22.5729 25.5256 22.0047 24.6524 21.5897 23.6519C21.1929 22.6333 20.9944 21.5509 20.9944 20.405C20.9944 19.2408 21.2019 18.1493 21.6168 17.1307C22.0498 16.112 22.6361 15.2298 23.3757 14.484C24.1153 13.7382 24.9812 13.147 25.9734 12.7104C26.9837 12.2738 28.0661 12.0555 29.2206 12.0555C30.3932 12.0555 31.4756 12.2647 32.4678 12.6831C33.478 13.0833 34.3439 13.6563 35.0655 14.4021C35.7871 15.1297 36.3464 15.9938 36.7433 16.9942C37.1582 17.9947 37.3656 19.0861 37.3656 20.2685V21.6601H24.4851C24.7377 22.7879 25.2879 23.6974 26.1358 24.3887C26.9837 25.0799 28.057 25.4255 29.3559 25.4255C30.3842 25.4255 31.2772 25.1708 32.0348 24.6615C32.7925 24.1522 33.3608 23.47 33.7396 22.6151L36.7433 24.3614C36.0577 25.6529 35.0926 26.6988 33.8479 27.4992C32.6211 28.2814 31.1238 28.6725 29.3559 28.6725ZM29.2206 15.3025C28.1202 15.3025 27.1641 15.6027 26.3523 16.203C25.5585 16.8032 24.9993 17.5945 24.6746 18.5768H33.6584C33.3878 17.5036 32.8647 16.6941 32.089 16.1484C31.3132 15.5845 30.3571 15.3025 29.2206 15.3025Z" fill="#040D1F"/>
<path d="M0 8.42656H3.65308L9.6333 16.8032L15.8571 8.42656H19.3478V28.3451H15.6677V14.3748L9.60625 22.6151L3.68014 14.5113V28.3451H0V8.42656Z" fill="#040D1F"/>
<path fill-rule="evenodd" clip-rule="evenodd" d="M138.263 1.81836C138.079 1.41003 137.672 1.14206 137.221 1.14206H135.067L139.884 11.714H148.379C148.691 11.714 148.983 11.8543 149.18 12.1031L161.468 27.5243H164.296L150.146 9.76174C149.93 9.49377 149.606 9.33426 149.256 9.33426H141.625L141.32 8.65796L138.263 1.81836ZM160.007 27.5243L148.322 12.8624H139.807C139.407 12.8624 139.039 12.6263 138.873 12.2627L133.809 1.14206H130.956L137.526 14.6043C137.717 14.9935 138.117 15.2423 138.549 15.2423H147.394L147.737 15.6698L156.843 27.0968C157.059 27.3648 157.383 27.5243 157.733 27.5243H160.007ZM149.25 8.1922C149.942 8.1922 150.597 8.51121 151.029 9.05353L166.66 28.6727H157.726C157.034 28.6727 156.379 28.3537 155.947 27.8114L146.841 16.3844H138.543C137.672 16.3844 136.878 15.8867 136.497 15.102L129.126 0H137.221C138.124 0 138.937 0.529558 139.299 1.35261L142.355 8.1922H149.25Z" fill="#040D1F"/>
<path d="M135.716 19.2616L129.584 28.6724H138.08C138.467 28.6724 138.829 28.4747 139.039 28.1493L145.393 18.228H137.628C136.86 18.228 136.142 18.6172 135.722 19.2616H135.716Z" fill="#0058F0"/>
<path d="M156.951 0.976173L152.853 7.11394C152.573 7.52866 152.598 8.08374 152.916 8.47293L157.466 14.0939L166.667 0H158.819C158.076 0 157.383 0.363672 156.951 0.976173Z" fill="#0058F0"/>
</svg>
