<svg width="50" height="20" viewBox="0 0 50 20" fill="none" xmlns="http://www.w3.org/2000/svg">
  <path fill-rule="evenodd" clip-rule="evenodd" d="M36.1903 3.75122H33.2866C33.0264 4.28616 31.2172 8.02248 30.3885 10.1542L30.3318 10.3002H30.2339L30.1771 10.1542C29.3484 8.02248 27.5392 4.28616 27.279 3.75122H24.3754C23.7478 8.26866 23.4368 15.2555 23.3945 16.256H26.2855C26.3126 15.4185 26.486 10.1475 26.6059 8.96298L26.6361 8.66423H26.7072L26.8226 8.92777C27.787 11.1283 29.0294 14.1512 29.2345 14.6514H31.3312C31.5363 14.1512 32.7786 11.1283 33.743 8.92777L33.8585 8.66423H33.9295L33.9597 8.96298C34.0799 10.1475 34.2533 15.4185 34.2803 16.256H37.1711C37.1288 15.2555 36.8178 8.26885 36.1903 3.75122ZM43.3876 6.01751C43.1165 6.01751 42.4047 6.00738 41.9817 6.08514V8.53808L42.0889 8.5485C42.0947 8.54903 42.6757 8.59761 43.3456 8.59761C44.4318 8.59761 45.0618 8.51531 45.4439 8.17922C45.8284 7.84086 45.9268 7.28378 45.6883 6.80533C45.3119 6.0521 44.1372 6.01751 43.3876 6.01751ZM41.9853 13.7825C42.6138 13.8216 43.2928 13.8491 43.9752 13.825C44.5047 13.8063 45.2061 13.7652 45.7037 13.2559C46.1489 12.8009 46.2292 12.1186 45.8973 11.5568C45.5892 11.0351 44.9746 10.7797 43.4839 10.7975C42.7311 10.7975 42.0042 10.8775 41.9781 10.8811L41.9853 13.7825ZM43.2359 16.3617C41.6654 16.3617 40.1943 16.326 39.0468 16.2631V3.75831C39.4461 3.72406 40.6824 3.69695 42.4313 3.65334C43.5277 3.62604 44.5757 3.66907 45.3964 3.79883C47.2541 4.09247 47.9307 4.9801 48.2226 5.46796C48.5029 5.9383 48.6898 6.46142 48.6452 7.14113C48.5928 7.9385 48.3342 8.59273 47.5197 9.23631L47.376 9.34987L47.5396 9.43222C48.1039 9.71664 48.4649 10.1686 48.7115 10.6115C49.0077 11.1463 49.158 11.7558 49.158 12.4228C49.158 13.7713 48.6741 14.7909 47.6907 15.474C46.819 16.08 45.6027 16.3617 43.2359 16.3617Z" fill="#141ED2"/>
  <path fill-rule="evenodd" clip-rule="evenodd" d="M4.53663 13.2982C4.54237 13.2919 7.12671 10.3719 7.13236 10.3656C7.28615 10.1932 7.4013 9.98366 7.44013 9.73941C7.54288 9.09318 7.1024 8.48598 6.45612 8.38318C5.96489 8.30503 5.4943 8.53977 5.25518 8.94277C5.25083 8.95005 3.25845 12.3241 3.25416 12.3313C3.1969 12.4214 3.15652 12.5243 3.13867 12.6364C3.06872 13.0761 3.36839 13.4891 3.80801 13.5591C4.08973 13.6039 4.35578 13.4938 4.53663 13.2982ZM11.2105 16.1108C11.2063 16.1033 9.22662 12.7439 9.22238 12.7366C9.10588 12.5371 8.9421 12.3629 8.72174 12.2506C8.1388 11.9533 7.42527 12.1849 7.12802 12.7679C6.90206 13.211 6.98006 13.7311 7.28957 14.083C7.29517 14.0893 9.88945 17.0259 9.89499 17.0322C9.96306 17.1145 10.0484 17.1846 10.1496 17.2362C10.5461 17.4385 11.0316 17.2809 11.2338 16.8844C11.3634 16.6302 11.3408 16.3432 11.2105 16.1108ZM15.9471 10.6332C15.9387 10.6349 12.1326 11.4826 12.1244 11.4844C11.8987 11.5338 11.6825 11.6358 11.5077 11.8108C11.0452 12.2738 11.0456 13.0239 11.5085 13.4864C11.8604 13.838 12.3792 13.9241 12.8094 13.7381C12.8171 13.7347 16.4104 12.1719 16.4181 12.1686C16.5174 12.1292 16.6105 12.0697 16.6907 11.9893C17.0053 11.6744 17.0051 11.1641 16.6902 10.8494C16.4884 10.6479 16.2083 10.5809 15.9471 10.6332ZM12.2048 4.43474C12.2038 4.44314 11.8305 8.32466 11.8296 8.33301C11.8066 8.56292 11.8367 8.80007 11.9488 9.02053C12.2458 9.60366 12.9591 9.8358 13.5423 9.53893C13.9855 9.31331 14.2281 8.84668 14.1846 8.38009C14.1838 8.37165 13.8114 4.47102 13.8107 4.46263C13.804 4.35606 13.7761 4.24911 13.7247 4.14791C13.5227 3.75122 13.0374 3.59328 12.6407 3.79522C12.3865 3.92465 12.236 4.17014 12.2048 4.43474ZM3.46116 8.33065C3.63217 8.52834 3.87584 8.66206 4.15655 8.66191C4.65116 8.66172 5.05199 8.26065 5.05179 7.76604C5.0517 7.60246 5.00707 7.44968 4.93047 7.31774C4.92642 7.31026 3.1488 4.38453 3.14451 4.37729C2.92516 4.01635 2.55226 3.75735 2.10232 3.75754C1.44799 3.75774 0.91768 4.28843 0.917969 4.94276C0.918065 5.23568 1.02226 5.50554 1.20114 5.70993C1.2501 5.76676 3.45561 8.32423 3.46116 8.33065ZM6.15365 15.6025C6.39466 15.5013 6.59737 15.3112 6.68435 15.0442C6.83771 14.574 6.58078 14.0685 6.11053 13.9152C5.95505 13.8645 5.7959 13.8595 5.64674 13.8914C5.6384 13.8929 2.30541 14.6748 2.29721 14.6767C1.88606 14.7731 1.52411 15.0473 1.3846 15.475C1.1818 16.0971 1.5217 16.7659 2.14381 16.9687C2.4223 17.0595 2.71116 17.0442 2.961 16.9376C3.03018 16.9087 6.14579 15.6058 6.15365 15.6025ZM13.8983 15.2757C13.8762 15.0152 13.7577 14.7638 13.5305 14.5988C13.1304 14.3082 12.5703 14.3969 12.2797 14.7971C12.1836 14.9295 12.1298 15.0793 12.1142 15.2311C12.1131 15.2395 11.8307 18.6513 11.83 18.6597C11.7952 19.0806 11.9445 19.5093 12.3085 19.7737C12.838 20.1583 13.5789 20.0408 13.9635 19.5114C14.1356 19.2744 14.21 18.9948 14.1855 18.7243C14.1793 18.6496 13.899 15.2841 13.8983 15.2757ZM15.99 7.82451C15.7354 7.76541 15.4597 7.80077 15.2329 7.96619C14.8332 8.25756 14.7454 8.81778 15.0368 9.21745C15.1331 9.34958 15.2591 9.44684 15.3988 9.50834C15.4064 9.51201 18.5659 10.8302 18.5737 10.8334C18.9635 10.996 19.4174 10.9859 19.781 10.7208C20.3097 10.3353 20.4258 9.59416 20.0404 9.0654C19.8679 8.82873 19.6247 8.672 19.3597 8.61208C19.2867 8.59496 15.9983 7.82644 15.99 7.82451ZM9.54105 3.523C9.40584 3.74664 9.35383 4.01968 9.44057 4.28669C9.59344 4.75709 10.0987 5.01455 10.5691 4.86167C10.7246 4.81112 10.8562 4.72153 10.958 4.60793C10.9639 4.6018 13.1981 2.00791 13.2036 2.00154C13.4793 1.68156 13.6106 1.24691 13.4715 0.819021C13.2693 0.196671 12.6009 -0.143907 11.9786 0.0583168C11.7 0.148816 11.4755 0.331262 11.3363 0.564504C11.2973 0.628568 9.54544 3.51571 9.54105 3.523ZM4.67711 5.46834C4.6075 5.02868 4.90746 4.61579 5.34712 4.54618C5.45928 4.52843 5.56961 4.53494 5.67303 4.56147C5.68124 4.5633 9.50642 5.41296 9.51462 5.41485C9.97189 5.51745 10.3408 5.89228 10.4186 6.38356C10.521 7.02984 10.08 7.63675 9.43377 7.73912C9.18948 7.77781 8.9546 7.73324 8.74296 7.64037C8.73534 7.637 5.1586 6.08389 5.15083 6.08032C4.90881 5.96898 4.72173 5.75007 4.67711 5.46834Z" fill="#EB2D4B"/>
</svg>
