<svg width="120" height="24" viewBox="0 0 120 24" fill="none" xmlns="http://www.w3.org/2000/svg">
  <path d="M84.2061 10.598H86.1475V8.85575L88.7878 7.03516V10.598H91.0981V12.9668H88.7878V17.254C88.7878 17.7499 88.8137 18.1545 88.8655 18.4677C88.9172 18.7679 89.0208 19.0028 89.1761 19.1724C89.3444 19.329 89.5773 19.4335 89.875 19.4857C90.1856 19.5379 90.5934 19.564 91.0981 19.564V22.0501H90.7292C89.8491 22.0501 89.1114 21.9718 88.516 21.8152C87.9336 21.6586 87.4677 21.3976 87.1182 21.0322C86.7687 20.6537 86.5163 20.1643 86.361 19.564C86.2187 18.9506 86.1475 18.1871 86.1475 17.2735V12.9668H84.2061V10.598Z" fill="#040D1F"/>
  <path d="M73.0865 10.598H75.688V12.0075C76.0634 11.5116 76.5358 11.1135 77.1053 10.8134C77.6877 10.5132 78.3478 10.3631 79.0855 10.3631C80.4963 10.3631 81.5965 10.7938 82.386 11.6552C83.1884 12.5165 83.5897 13.7172 83.5897 15.2572V22.0501H80.9299V15.5313C80.9299 14.6438 80.7163 13.9456 80.2892 13.4366C79.8621 12.9146 79.2214 12.6535 78.3672 12.6535C77.6165 12.6535 76.9823 12.9211 76.4646 13.4562C75.9598 13.9913 75.7075 14.7613 75.7075 15.7662V22.0501H73.0865V10.598Z" fill="#040D1F"/>
  <path d="M65.1892 22.2851C64.5032 22.2851 63.8237 22.1546 63.1507 21.8935C62.4906 21.6195 61.8952 21.2279 61.3646 20.719C60.8339 20.21 60.4068 19.5901 60.0832 18.8592C59.7596 18.1153 59.5979 17.2735 59.5979 16.3339C59.5979 15.3812 59.7532 14.5394 60.0638 13.8085C60.3874 13.0646 60.808 12.4382 61.3257 11.9292C61.8564 11.4202 62.4582 11.0352 63.1313 10.7742C63.8172 10.5002 64.5161 10.3631 65.228 10.3631C65.9787 10.3631 66.6711 10.5067 67.3053 10.7938C67.9395 11.0809 68.4637 11.4724 68.8779 11.9684V10.598H71.4988V22.0501H68.8779V20.5624C68.4637 21.0974 67.9331 21.5216 67.2859 21.8348C66.6388 22.135 65.9398 22.2851 65.1892 22.2851ZM65.6163 19.8576C66.1081 19.8576 66.5611 19.7663 66.9753 19.5835C67.3895 19.4008 67.7454 19.1463 68.0431 18.8201C68.3408 18.4938 68.5737 18.1153 68.742 17.6846C68.9232 17.254 69.0138 16.7907 69.0138 16.2947C69.0138 15.8118 68.9232 15.3551 68.742 14.9244C68.5737 14.4937 68.3408 14.1218 68.0431 13.8085C67.7454 13.4823 67.3895 13.2278 66.9753 13.0451C66.5611 12.8624 66.1081 12.771 65.6163 12.771C65.1374 12.771 64.6844 12.8624 64.2573 13.0451C63.8431 13.2278 63.4807 13.4757 63.1701 13.789C62.8595 14.1022 62.6135 14.4741 62.4323 14.9048C62.2641 15.3355 62.18 15.7988 62.18 16.2947C62.18 16.7907 62.2641 17.2605 62.4323 17.7042C62.6135 18.1349 62.8595 18.5134 63.1701 18.8396C63.4807 19.1529 63.8431 19.4008 64.2573 19.5835C64.6844 19.7663 65.1374 19.8576 65.6163 19.8576Z" fill="#040D1F"/>
  <path d="M47.9466 7.56372H50.5675V11.9684C50.9558 11.4724 51.4347 11.0809 52.0042 10.7938C52.5866 10.5067 53.2402 10.3631 53.965 10.3631C55.3758 10.3631 56.4759 10.7938 57.2654 11.6552C58.0679 12.5165 58.4691 13.7172 58.4691 15.2572V22.0501H55.7899V15.5508C55.7899 14.6503 55.5764 13.9456 55.1493 13.4366C54.7221 12.9146 54.0815 12.6535 53.2272 12.6535C52.8648 12.6535 52.5219 12.7253 52.1983 12.8689C51.8747 12.9994 51.59 13.1952 51.3441 13.4562C51.1111 13.7172 50.9234 14.0435 50.781 14.435C50.6516 14.8265 50.5869 15.2702 50.5869 15.7662V22.0501H47.9466V7.56372Z" fill="#040D1F"/>
  <path d="M41.4974 22.2851C40.669 22.2851 39.8925 22.1285 39.1677 21.8152C38.4558 21.502 37.8346 21.0779 37.3039 20.5428C36.7733 20.0077 36.3526 19.3813 36.042 18.6635C35.7443 17.9326 35.5955 17.1561 35.5955 16.3339C35.5955 15.4986 35.7443 14.7221 36.042 14.0043C36.3526 13.2735 36.7733 12.6405 37.3039 12.1054C37.8346 11.5573 38.4558 11.1331 39.1677 10.833C39.8925 10.5197 40.669 10.3631 41.4974 10.3631C42.1316 10.3631 42.727 10.4545 43.2835 10.6372C43.853 10.8068 44.3707 11.0483 44.8366 11.3615C45.3026 11.6747 45.7103 12.0467 46.0597 12.4774C46.4092 12.908 46.694 13.3844 46.914 13.9064L44.5648 14.9048C44.306 14.2784 43.9048 13.7824 43.3612 13.417C42.8305 13.0385 42.2157 12.8493 41.5168 12.8493C41.0379 12.8493 40.5914 12.9407 40.1772 13.1234C39.776 13.3061 39.4201 13.5541 39.1094 13.8673C38.8118 14.1805 38.5788 14.5524 38.4105 14.9831C38.2423 15.4007 38.1581 15.851 38.1581 16.3339C38.1581 16.8037 38.2423 17.254 38.4105 17.6846C38.5788 18.1023 38.8118 18.4677 39.1094 18.7809C39.4201 19.0941 39.7825 19.3421 40.1966 19.5248C40.6108 19.7075 41.0573 19.7989 41.5362 19.7989C42.274 19.7989 42.9017 19.6031 43.4194 19.2116C43.9501 18.807 44.3448 18.2915 44.6037 17.6651L46.9528 18.683C46.7328 19.2051 46.448 19.6879 46.0986 20.1317C45.7491 20.5754 45.3414 20.9604 44.8755 21.2867C44.4225 21.5999 43.9112 21.8479 43.3418 22.0306C42.7723 22.2002 42.1575 22.2851 41.4974 22.2851Z" fill="#040D1F"/>
  <path d="M27.9825 10.598H30.584V12.3012C31.1147 11.1657 32.0854 10.598 33.4961 10.598C33.9103 10.598 34.2792 10.6437 34.6028 10.7351C34.9393 10.8264 35.2369 10.9439 35.4958 11.0874L34.5057 13.5932C34.3115 13.4627 34.0915 13.3583 33.8456 13.28C33.6126 13.1886 33.3085 13.143 32.9331 13.143C32.1695 13.143 31.5871 13.3648 31.1858 13.8085C30.7976 14.2392 30.6034 14.9505 30.6034 15.9424V22.0501H27.9825V10.598Z" fill="#040D1F"/>
  <path d="M21.0616 22.2851C20.1685 22.2851 19.3531 22.135 18.6154 21.8348C17.8777 21.5216 17.2435 21.0974 16.7128 20.5624C16.1951 20.0273 15.7874 19.4008 15.4897 18.683C15.205 17.9522 15.0626 17.1757 15.0626 16.3535C15.0626 15.5182 15.2114 14.7352 15.5091 14.0043C15.8197 13.2735 16.2404 12.6405 16.771 12.1054C17.3017 11.5703 17.923 11.1462 18.6348 10.833C19.3596 10.5197 20.1362 10.3631 20.9645 10.3631C21.8058 10.3631 22.5824 10.5132 23.2942 10.8134C24.019 11.1005 24.6403 11.5116 25.158 12.0467C25.6757 12.5687 26.077 13.1886 26.3617 13.9064C26.6594 14.6242 26.8082 15.4073 26.8082 16.2556V17.254H17.567C17.7482 18.0631 18.143 18.7157 18.7513 19.2116C19.3596 19.7075 20.1297 19.9555 21.0616 19.9555C21.7993 19.9555 22.44 19.7728 22.9836 19.4074C23.5272 19.0419 23.9349 18.5525 24.2067 17.9391L26.3617 19.192C25.8699 20.1186 25.1774 20.869 24.2844 21.4433C23.4043 22.0045 22.33 22.2851 21.0616 22.2851ZM20.9645 12.6927C20.175 12.6927 19.489 12.908 18.9066 13.3387C18.3371 13.7694 17.9359 14.3371 17.7029 15.0418H24.1485C23.9543 14.2718 23.579 13.6911 23.0224 13.2996C22.4659 12.895 21.7799 12.6927 20.9645 12.6927Z" fill="#040D1F"/>
  <path d="M0 7.75948H2.62093L6.91148 13.7694L11.3768 7.75948H13.8812V22.0501H11.2409V12.0271L6.89207 17.9391L2.64034 12.125V22.0501H0V7.75948Z" fill="#040D1F"/>
  <path fill-rule="evenodd" clip-rule="evenodd" d="M99.3564 3.01846C99.2242 2.7255 98.9324 2.53325 98.6088 2.53325H97.0629L100.519 10.1181H106.614C106.838 10.1181 107.047 10.2188 107.189 10.3974L116.005 21.4613H118.034L107.881 8.71749C107.726 8.52524 107.494 8.4108 107.243 8.4108H101.768L101.549 7.92558L99.3564 3.01846ZM114.957 21.4613L106.573 10.9421H100.464C100.177 10.9421 99.9126 10.7727 99.7941 10.5118L96.1604 2.53325H94.1137L98.8276 12.1918C98.9644 12.4711 99.2516 12.6496 99.5616 12.6496H105.907L106.154 12.9563L112.687 21.1546C112.842 21.3469 113.074 21.4613 113.325 21.4613H114.957ZM107.239 7.59142C107.736 7.59142 108.205 7.82029 108.515 8.20938L119.73 22.2853H113.32C112.823 22.2853 112.354 22.0564 112.044 21.6673L105.511 13.469H99.557C98.9324 13.469 98.3626 13.1119 98.0891 12.5489L92.8008 1.71387H98.6088C99.2561 1.71387 99.8397 2.0938 100.1 2.6843L102.292 7.59142H107.239Z" fill="#040D1F"/>
  <path d="M97.5282 15.5336L93.1289 22.2854H99.2241C99.5022 22.2854 99.762 22.1435 99.9125 21.9101L104.471 14.792H98.9004C98.3488 14.792 97.8336 15.0712 97.5328 15.5336H97.5282Z" fill="#0058F0"/>
  <path d="M112.763 2.41423L109.822 6.81781C109.622 7.11535 109.64 7.5136 109.868 7.79283L113.132 11.8256L119.733 1.71387H114.103C113.57 1.71387 113.073 1.97479 112.763 2.41423Z" fill="#0058F0"/>
</svg>
